<?xml version="1.0" encoding="UTF-8"?>
<!-- Generator: visioncortex VTracer 0.6.4 -->
<svg version="1.1" xmlns="http://www.w3.org/2000/svg" viewBox="0 0 447 447" width="447" height="447">
<path d="M0 0 C147.51 0 295.02 0 447 0 C447 147.51 447 295.02 447 447 C299.49 447 151.98 447 0 447 C0 299.49 0 151.98 0 0 Z " fill="#048F53" transform="translate(0,0)"/>
<path d="M0 0 C0.99 0.66 1.98 1.32 3 2 C4.68 1.72 6.34 1.38 8 1 C10.33 0.96 12.67 0.95 15 1 C15.5 3.47 15.5 3.47 16 6 C14.68 6.33 13.36 6.66 12 7 C11.67 6.01 11.34 5.02 11 4 C9.68 4 8.36 4 7 4 C7.25 4.77 7.25 4.77 7.5 5.56 C8.32 9.55 8.58 13.38 7.19 17.25 C4.73 20.87 3.77 21.85 -0.79 22.73 C-2.26 22.9 -3.72 23.05 -5.19 23.19 C-6.31 23.31 -6.31 23.31 -7.46 23.44 C-9.3 23.64 -11.15 23.82 -13 24 C-13 24.99 -13 25.98 -13 27 C-12.13 26.95 -12.13 26.95 -11.23 26.89 C-3.69 26.65 5.23 26.97 11.32 31.87 C13.41 34.52 13.57 36.63 13.39 39.97 C12.57 44.28 10.14 47 6.94 49.81 C0.56 52.39 -7.38 52.82 -14 51 C-17.44 49 -17.44 49 -20 46 C-20.93 41.29 -20.67 38.01 -18 34 C-17.34 34 -16.68 34 -16 34 C-16 33.01 -16 32.02 -16 31 C-16.99 30.67 -17.98 30.34 -19 30 C-18.51 24.46 -18.51 24.46 -15.94 22.12 C-14.98 21.57 -14.98 21.57 -14 21 C-14.66 20.55 -15.32 20.09 -16 19.62 C-18.65 16.14 -18.57 13.7 -18.39 9.41 C-17.83 5.95 -16.63 4.28 -14 2 C-9.77 -0.54 -4.81 -0.61 0 0 Z " fill="#E3F3ED" transform="translate(223,242)"/>
<path d="M0 0 C2.31 0 4.62 0 7 0 C7.33 1.65 7.66 3.3 8 5 C7.01 5.33 6.02 5.66 5 6 C5 6.66 5 7.32 5 8 C6.65 8 8.3 8 10 8 C9.67 9.65 9.34 11.3 9 13 C9.99 12.34 10.98 11.68 12 11 C12 11.99 12 12.98 12 14 C18.44 13.5 18.44 13.5 25 13 C25.99 14.49 25.99 14.49 27 16 C28.02 15.26 28.02 15.26 29.06 14.5 C32.72 12.63 34.93 12.49 39 13 C43.6 15.8 43.6 15.8 44.61 18.83 C45.04 21.23 45.21 23.55 45.32 25.98 C45.36 26.92 45.4 27.85 45.44 28.82 C45.48 29.78 45.52 30.75 45.56 31.75 C45.61 32.73 45.65 33.72 45.69 34.73 C45.8 37.15 45.9 39.58 46 42 C47.32 42 48.64 42 50 42 C50 42.66 50 43.32 50 44 C45.05 44 40.1 44 35 44 C35 43.34 35 42.68 35 42 C36.32 41.34 37.64 40.68 39 40 C39.05 37.06 39.09 34.13 39.12 31.19 C39.14 30.35 39.16 29.52 39.18 28.66 C39.18 27.86 39.19 27.06 39.2 26.23 C39.21 25.49 39.22 24.75 39.23 23.99 C39.12 21.68 39.12 21.68 37 19 C32.39 18.41 32.39 18.41 28.3 20.23 C26.62 22.52 26.65 23.85 26.71 26.67 C26.72 27.56 26.73 28.45 26.74 29.37 C26.76 30.3 26.79 31.23 26.81 32.19 C26.83 33.13 26.84 34.07 26.85 35.04 C26.89 37.36 26.94 39.68 27 42 C27.99 42 28.98 42 30 42 C30 42.99 30 43.98 30 45 C18.78 45.33 7.56 45.66 -4 46 C-4 44.68 -4 43.36 -4 42 C-2.68 42 -1.36 42 0 42 C0 33.75 0 25.5 0 17 C-1.32 17 -2.64 17 -4 17 C-4 16.34 -4 15.68 -4 15 C-2.89 14.69 -1.77 14.38 -0.62 14.06 C2.79 13.18 2.79 13.18 5 12 C3.68 11.34 2.36 10.68 1 10 C1.33 9.01 1.66 8.02 2 7 C1.34 6.67 0.68 6.34 0 6 C0 4.02 0 2.04 0 0 Z " fill="#17925C" transform="translate(150,229)"/>
<path d="M0 0 C4.25 1.79 5.98 3.91 8 8 C8.74 13.68 9.47 20.65 6.25 25.69 C1.19 30.88 1.19 30.88 -3.02 31.29 C-4.08 31.26 -5.15 31.22 -6.25 31.19 C-9.1 31.09 -9.1 31.09 -12 31 C-11.67 35.95 -11.34 40.9 -11 46 C-9.68 46.33 -8.36 46.66 -7 47 C-7 47.66 -7 48.32 -7 49 C-12.61 49 -18.22 49 -24 49 C-24 48.34 -24 47.68 -24 47 C-22.02 46.5 -22.02 46.5 -20 46 C-20 32.8 -20 19.6 -20 6 C-21.32 5.34 -22.64 4.68 -24 4 C-24 3.34 -24 2.68 -24 2 C-18.56 1.5 -18.56 1.5 -13 1 C-13 1.99 -13 2.98 -13 4 C-12.34 3.34 -11.68 2.68 -11 2 C-7.16 -0.56 -4.49 -0.75 0 0 Z " fill="#E7F6F3" transform="translate(108,242)"/>
<path d="M0 0 C0.33 13.86 0.66 27.72 1 42 C2.32 42.33 3.64 42.66 5 43 C5 43.66 5 44.32 5 45 C-0.44 45.5 -0.44 45.5 -6 46 C-6 45.34 -6 44.68 -6 44 C-6.85 44.49 -6.85 44.49 -7.72 44.98 C-12.21 46.99 -17.16 46.4 -21.88 45.38 C-25.1 43.29 -25.8 41.68 -27 38 C-27.65 31.53 -27.96 25.46 -24 20 C-21.16 17.23 -19.66 16.08 -15.67 15.61 C-13.95 15.68 -13.95 15.68 -12.19 15.75 C-11.03 15.79 -9.86 15.82 -8.67 15.86 C-7.79 15.91 -6.91 15.95 -6 16 C-6 12.37 -6 8.74 -6 5 C-8.31 4.67 -10.62 4.34 -13 4 C-12.67 3.01 -12.34 2.02 -12 1 C-10.56 0.83 -9.13 0.67 -7.69 0.5 C-6.49 0.36 -6.49 0.36 -5.26 0.22 C-3 0 -3 0 0 0 Z " fill="#E1F3EC" transform="translate(397,227)"/>
<path d="M0 0 C3.3 0 6.6 0 10 0 C10 5.94 10 11.88 10 18 C11.65 16.68 13.3 15.36 15 14 C19.15 13.33 21.44 13.05 25.04 15.25 C28.04 17.72 29.75 19.25 31 23 C31.09 25.16 31.13 27.33 31.12 29.5 C31.13 31.22 31.13 31.22 31.13 32.97 C31 36 31 36 30 39 C28.04 40.57 28.04 40.57 25.62 42.12 C24.44 42.9 24.44 42.9 23.23 43.7 C19.47 45.89 16.58 46.11 12.31 46.06 C11.32 46.05 10.32 46.04 9.3 46.04 C8.16 46.02 8.16 46.02 7 46 C7 45.34 7 44.68 7 44 C6.01 44 5.02 44 4 44 C3.67 30.8 3.34 17.6 3 4 C1.68 3.67 0.36 3.34 -1 3 C-0.67 2.01 -0.34 1.02 0 0 Z " fill="#E2F4ED" transform="translate(241,228)"/>
<path d="M0 0 C2.76 1.45 4.55 2.57 5.77 5.49 C5.79 6.07 5.81 6.65 5.83 7.24 C6.49 7.24 7.15 7.24 7.83 7.24 C7.91 9.47 7.97 11.7 8.02 13.93 C8.07 15.79 8.07 15.79 8.12 17.69 C7.75 22.25 6.45 24.72 3.14 27.82 C-2.23 31.35 -6.81 32.36 -13.17 31.24 C-17.3 29.44 -19.29 27.62 -21.05 23.55 C-22.87 17.72 -23.01 12.48 -20.86 6.74 C-19.17 4.24 -19.17 4.24 -16.17 3.24 C-16.17 2.58 -16.17 1.92 -16.17 1.24 C-11.16 -1.64 -5.47 -1.91 0 0 Z " fill="#D2E9E2" transform="translate(299.171875,242.7578125)"/>
<path d="M0 0 C2.99 1.28 5.15 3.14 7.64 5.23 C8.58 6.01 9.52 6.79 10.48 7.59 C13.14 9.91 13.14 9.91 15.25 12.07 C17.06 13.83 18.68 14.97 20.89 16.16 C21.96 16.74 23.04 17.32 24.14 17.91 C24.14 18.57 24.14 19.23 24.14 19.91 C25.13 20.24 26.12 20.57 27.14 20.91 C27.14 21.57 27.14 22.23 27.14 22.91 C9.32 22.91 -8.5 22.91 -26.86 22.91 C-25.81 19.75 -25.34 19.23 -22.84 17.29 C-22.23 16.81 -21.62 16.33 -20.99 15.84 C-20.35 15.35 -19.71 14.86 -19.05 14.35 C-18.1 13.61 -18.1 13.61 -17.14 12.85 C-14.14 10.53 -11.31 8.54 -7.86 6.91 C-7.86 6.25 -7.86 5.59 -7.86 4.91 C-2.7 -0.12 -2.7 -0.12 0 0 Z " fill="#FAFBFB" transform="translate(199.859375,177.0859375)"/>
<path d="M0 0 C3.07 1.22 4.85 2.82 7.23 5.11 C11.12 8.77 15.09 12.1 19.38 15.29 C21.91 17.33 24.18 19.69 26.48 21.99 C8.66 21.99 -9.16 21.99 -27.52 21.99 C-23.92 18.39 -20.41 15.22 -16.52 11.99 C-15.59 11.06 -15.59 11.06 -14.64 10.11 C-12.37 7.84 -10.03 5.74 -7.58 3.68 C-6.75 2.96 -5.91 2.24 -5.05 1.5 C-2.52 -0.01 -2.52 -0.01 0 0 Z " fill="#FBFCFC" transform="translate(200.51953125,208.01171875)"/>
<path d="M0 0 C2.49 1.64 4.63 3.61 6.81 5.62 C8.05 6.73 9.29 7.84 10.53 8.94 C11.13 9.47 11.72 10 12.33 10.55 C14.96 12.84 17.77 14.85 20.64 16.82 C22 18 22 18 23 21 C6.17 21 -10.66 21 -28 21 C-24.9 17.12 -22.53 14.62 -18.75 11.62 C-14.6 8.32 -10.66 4.91 -6.85 1.21 C-4.24 -0.5 -3.08 -0.61 0 0 Z " fill="#F9FCFB" transform="translate(202,147)"/>
<path d="M0 0 C0 0.66 0 1.32 0 2 C0.62 2.25 1.24 2.5 1.88 2.75 C4.44 4.26 4.91 5.26 6 8 C6.23 10.2 6.23 10.2 6.2 12.55 C6.19 13.39 6.18 14.24 6.18 15.11 C6.16 15.98 6.14 16.85 6.12 17.75 C6.12 18.64 6.11 19.53 6.1 20.44 C6.07 22.63 6.04 24.81 6 27 C7.65 27 9.3 27 11 27 C10.67 27.99 10.34 28.98 10 30 C6.73 31.63 3.3 31.34 -0.19 30.44 C-2.22 29.78 -2.22 29.78 -5 31 C-6.69 31.09 -8.37 31.13 -10.06 31.12 C-11.38 31.13 -11.38 31.13 -12.72 31.13 C-15 31 -15 31 -17 30 C-18.28 25.64 -18.59 22.11 -16.44 18.06 C-11.65 14.01 -7.12 13.76 -1 14 C-1.14 12.52 -1.29 11.04 -1.44 9.56 C-1.52 8.74 -1.6 7.92 -1.68 7.07 C-1.79 5.01 -1.79 5.01 -3 4 C-5.33 3.96 -7.67 3.96 -10 4 C-10.33 6.31 -10.66 8.62 -11 11 C-12.98 11 -14.96 11 -17 11 C-16.78 7.12 -16.52 4.68 -14.12 1.56 C-9.49 -0.76 -5.09 -0.32 0 0 Z " fill="#DDF3EC" transform="translate(330,242)"/>
<path d="M0 0 C0 3.63 0 7.26 0 11 C-2.56 8.44 -3.47 7.06 -5 4 C-7.37 2.82 -8.87 2.87 -11.5 2.88 C-12.29 2.87 -13.09 2.87 -13.91 2.87 C-16.06 2.87 -16.06 2.87 -18 4 C-18.85 7.56 -19.17 9.49 -18 13 C-17.34 13 -16.68 13 -16 13 C-16 13.66 -16 14.32 -16 15 C-15.44 15.12 -14.89 15.24 -14.31 15.36 C-8.67 16.92 -3.52 19.48 0.62 23.62 C2.6 28.47 2.92 32.85 2 38 C-0.54 41.45 -3.08 43.38 -7 45 C-9.62 45.27 -9.62 45.27 -12.44 45.25 C-13.36 45.26 -14.29 45.26 -15.25 45.27 C-18 45 -18 45 -20.66 43.92 C-23.09 42.67 -23.09 42.67 -26 44 C-26 39.38 -26 34.76 -26 30 C-25.34 30 -24.68 30 -24 30 C-23.71 31.13 -23.42 32.27 -23.12 33.44 C-22.75 34.61 -22.38 35.79 -22 37 C-21.34 37.33 -20.68 37.66 -20 38 C-20 38.66 -20 39.32 -20 40 C-15.51 41.44 -10.97 41.81 -6.56 40 C-4.55 37.43 -4.25 35.22 -4.44 31.98 C-5.27 29.05 -7.19 27.75 -9.72 26.21 C-11.41 25.31 -13.11 24.42 -14.81 23.54 C-15.78 23.03 -16.75 22.52 -17.75 22 C-18.67 21.55 -19.6 21.09 -20.55 20.62 C-23.41 18.73 -24.54 17.09 -26 14 C-26.4 10.23 -26.31 7.76 -24.88 4.25 C-18.73 -3.12 -8.58 -1.85 0 0 Z " fill="#DBF0EA" transform="translate(79,229)"/>
<path d="M0 0 C4.6 2.8 4.6 2.8 5.61 5.83 C6.04 8.23 6.21 10.55 6.32 12.98 C6.36 13.92 6.4 14.85 6.44 15.82 C6.48 16.78 6.52 17.75 6.56 18.75 C6.61 19.73 6.65 20.72 6.69 21.73 C6.8 24.15 6.9 26.58 7 29 C8.32 29 9.64 29 11 29 C11 29.66 11 30.32 11 31 C6.05 31 1.1 31 -4 31 C-4 30.34 -4 29.68 -4 29 C-2.68 28.34 -1.36 27.68 0 27 C0.05 24.06 0.09 21.13 0.12 18.19 C0.14 17.35 0.16 16.52 0.18 15.66 C0.18 14.86 0.19 14.06 0.2 13.23 C0.21 12.49 0.22 11.75 0.23 10.99 C0.12 8.68 0.12 8.68 -2 6 C-6.61 5.41 -6.61 5.41 -10.7 7.23 C-12.38 9.52 -12.35 10.85 -12.29 13.67 C-12.28 15.01 -12.28 15.01 -12.26 16.37 C-12.23 17.77 -12.23 17.77 -12.19 19.19 C-12.17 20.13 -12.16 21.07 -12.15 22.04 C-12.11 24.36 -12.06 26.68 -12 29 C-11.01 29 -10.02 29 -9 29 C-9 29.66 -9 30.32 -9 31 C-13.62 31 -18.24 31 -23 31 C-23 30.34 -23 29.68 -23 29 C-21.68 28.67 -20.36 28.34 -19 28 C-19.33 20.74 -19.66 13.48 -20 6 C-21.32 5.34 -22.64 4.68 -24 4 C-24 3.34 -24 2.68 -24 2 C-18.56 1.5 -18.56 1.5 -13 1 C-12.67 1.66 -12.34 2.32 -12 3 C-11.32 2.5 -10.64 2.01 -9.94 1.5 C-6.28 -0.37 -4.07 -0.51 0 0 Z " fill="#EEF7F4" transform="translate(189,242)"/>
<path d="M0 0 C3.94 0.5 3.94 0.5 6.94 2.5 C8.9 8.39 9.16 16.11 7.04 21.98 C5.94 23.88 5.94 23.88 3.94 26.5 C0.69 26.72 -1.43 26.85 -4.31 25.25 C-7.98 21.58 -8.38 18.22 -8.44 13.12 C-8.29 5.88 -8.29 5.88 -6.56 2.69 C-3.91 0.37 -3.34 0.13 0 0 Z " fill="#0E8F57" transform="translate(292.0625,244.5)"/>
<path d="M0 0 C2.27 1.1 4.54 2.2 6.81 3.31 C7.46 3.62 8.1 3.93 8.76 4.25 C15.13 7.39 15.13 7.39 17 10 C17.39 13.09 17.62 15.04 17 18 C14.27 21.31 12.7 21.93 8.44 22.38 C5.36 22.04 3.57 21.64 1 20 C1 19.34 1 18.68 1 18 C0.01 17.67 -0.98 17.34 -2 17 C-2.33 14.69 -2.66 12.38 -3 10 C-3.66 10 -4.32 10 -5 10 C-4.67 14.29 -4.34 18.58 -4 23 C-2.68 22.67 -1.36 22.34 0 22 C0.99 22.66 1.98 23.32 3 24 C5.05 24.45 5.05 24.45 7.19 24.62 C8.45 24.75 9.7 24.87 11 25 C11 25.33 11 25.66 11 26 C6.71 26 2.42 26 -2 26 C-2.33 26.66 -2.66 27.32 -3 28 C-3 27.01 -3 26.02 -3 25 C-3.99 25 -4.98 25 -6 25 C-6 20.05 -6 15.1 -6 10 C-6.66 10 -7.32 10 -8 10 C-8.33 10.99 -8.66 11.98 -9 13 C-9 11.02 -9 9.04 -9 7 C-7.02 7.66 -5.04 8.32 -3 9 C-3 8.34 -3 7.68 -3 7 C-1.02 6.67 0.96 6.34 3 6 C3 5.01 3 4.02 3 3 C2.01 2.67 1.02 2.34 0 2 C0 1.34 0 0.68 0 0 Z " fill="#0F8F57" transform="translate(58,249)"/>
<path d="M0 0 C0.66 0.33 1.32 0.66 2 1 C2 3.31 2 5.62 2 8 C-0.44 7.62 -0.44 7.62 -3 7 C-3.33 6.34 -3.66 5.68 -4 5 C-5.98 5.35 -5.98 5.35 -8 6 C-9.17 8.35 -9.12 9.74 -9.1 12.35 C-9.09 13.2 -9.09 14.05 -9.09 14.93 C-9.08 15.82 -9.07 16.71 -9.06 17.62 C-9.06 18.52 -9.05 19.42 -9.05 20.34 C-9.04 22.56 -9.02 24.78 -9 27 C-6.53 27.99 -6.53 27.99 -4 29 C-4 29.66 -4 30.32 -4 31 C-9.94 31 -15.88 31 -22 31 C-22 30.34 -22 29.68 -22 29 C-20.35 28.67 -18.7 28.34 -17 28 C-17.33 20.74 -17.66 13.48 -18 6 C-19.32 5.34 -20.64 4.68 -22 4 C-22 3.34 -22 2.68 -22 2 C-16.56 1.5 -16.56 1.5 -11 1 C-10.67 1.66 -10.34 2.32 -10 3 C-9.34 3 -8.68 3 -8 3 C-8 2.34 -8 1.68 -8 1 C-5.26 -0.37 -3.03 -0.13 0 0 Z " fill="#F9FAFC" transform="translate(142,242)"/>
<path d="M0 0 C2.11 1.59 2.91 2.45 3.34 5.08 C3.32 5.87 3.31 6.65 3.29 7.45 C3.28 8.3 3.27 9.14 3.26 10.02 C3.24 10.9 3.21 11.78 3.19 12.69 C3.17 13.58 3.16 14.47 3.15 15.39 C3.11 17.6 3.06 19.8 3 22 C2.34 22 1.68 22 1 22 C1 22.66 1 23.32 1 24 C-0.43 24.14 -1.87 24.23 -3.31 24.31 C-4.11 24.37 -4.91 24.43 -5.74 24.49 C-8 24 -8 24 -9.76 21.95 C-11.29 18.3 -11.47 15.4 -11.5 11.44 C-11.53 10.14 -11.56 8.84 -11.59 7.5 C-11 4 -11 4 -8.66 1.56 C-5.45 -0.32 -3.67 -0.56 0 0 Z " fill="#108F57" transform="translate(388,245)"/>
<path d="M0 0 C3.56 0.19 3.56 0.19 5.56 2.19 C5.76 4.35 5.76 4.35 5.69 6.81 C5.67 7.63 5.65 8.45 5.63 9.29 C5.61 9.92 5.59 10.54 5.56 11.19 C4.46 11.32 4.46 11.32 3.33 11.45 C-1.3 12.12 -4.69 12.69 -8.62 15.31 C-11.1 19.24 -10.83 21.6 -10.44 26.19 C-10.99 26.31 -11.55 26.44 -12.12 26.56 C-16.34 27.7 -19.54 28.83 -22.44 32.19 C-23.1 31.86 -23.76 31.53 -24.44 31.19 C-24.44 30.53 -24.44 29.87 -24.44 29.19 C-25.43 28.86 -26.42 28.53 -27.44 28.19 C-21.69 24.19 -21.69 24.19 -19.44 24.19 C-17.04 19.38 -16.83 14.46 -16.44 9.19 C-15.78 9.85 -15.12 10.51 -14.44 11.19 C-14.29 10.61 -14.15 10.03 -14 9.44 C-13.72 8.32 -13.72 8.32 -13.44 7.19 C-13.31 6.49 -13.19 5.78 -13.06 5.06 C-12.44 3.19 -12.44 3.19 -9.44 1.19 C-9.77 3.5 -10.1 5.81 -10.44 8.19 C-8.46 8.19 -6.48 8.19 -4.44 8.19 C-4.47 6.49 -4.47 6.49 -4.5 4.75 C-4.42 0.24 -4.42 0.24 0 0 Z " fill="#129258" transform="translate(323.4375,244.8125)"/>
<path d="M0 0 C1.22 3.65 1.3 7.07 1.38 10.88 C1.41 11.58 1.45 12.29 1.49 13.02 C1.56 17.05 1.17 18.78 -1.36 21.98 C-4 24 -4 24 -6.56 24.5 C-9.64 23.87 -10.84 23.33 -13 21 C-13.51 18.09 -13.38 15.25 -13.25 12.31 C-13.23 11.52 -13.21 10.72 -13.2 9.9 C-13.15 7.93 -13.08 5.97 -13 4 C-12.01 3.67 -11.02 3.34 -10 3 C-10 2.34 -10 1.68 -10 1 C-6.79 -0.61 -3.56 -0.06 0 0 Z " fill="#038D51" transform="translate(264,247)"/>
<path d="M0 0 C0.99 0 1.98 0 3 0 C3.07 1.28 3.07 1.28 3.15 2.59 C3.22 3.69 3.3 4.8 3.38 5.94 C3.44 7.04 3.51 8.14 3.59 9.28 C3.72 10.18 3.86 11.07 4 12 C4.66 12.33 5.32 12.66 6 13 C5.67 13.66 5.34 14.32 5 15 C4.34 15 3.68 15 3 15 C3.33 15.99 3.66 16.98 4 18 C3.34 18 2.68 18 2 18 C1.83 20.42 1.83 20.42 2 23 C2.66 23.66 3.32 24.32 4 25 C3.01 25 2.02 25 1 25 C0.67 24.01 0.34 23.02 0 22 C-1.66 21.5 -3.33 21.01 -5.01 20.61 C-8.32 19.6 -11.06 17.8 -14 16 C-14 15.34 -14 14.68 -14 14 C-14.66 14 -15.32 14 -16 14 C-18 11 -18 11 -17.81 7.94 C-17 5 -17 5 -14 3 C-9.98 2.43 -6.24 2.39 -2.56 4.19 C-0.72 6.32 0.13 8.33 1 11 C1.33 7.7 1.66 4.4 2 1 C1.34 0.67 0.68 0.34 0 0 Z " fill="#0B8F53" transform="translate(77,228)"/>
<path d="M0 0 C2 2 2 2 2.12 4.62 C2.08 5.41 2.04 6.19 2 7 C0.35 7.33 -1.3 7.66 -3 8 C-3.33 6.68 -3.66 5.36 -4 4 C-5.32 4 -6.64 4 -8 4 C-10.55 8.84 -10.23 13.49 -10.12 18.81 C-10.11 20.14 -10.11 20.14 -10.1 21.49 C-10.07 23.66 -10.04 25.83 -10 28 C-8.35 28.33 -6.7 28.66 -5 29 C-5 29.66 -5 30.32 -5 31 C-10.61 31 -16.22 31 -22 31 C-22 30.34 -22 29.68 -22 29 C-20.68 29 -19.36 29 -18 29 C-18 21.41 -18 13.82 -18 6 C-19.32 5.34 -20.64 4.68 -22 4 C-22 3.34 -22 2.68 -22 2 C-18.7 1.67 -15.4 1.34 -12 1 C-11.67 2.32 -11.34 3.64 -11 5 C-10.67 4.01 -10.34 3.02 -10 2 C-6.77 -0.27 -3.87 -0.34 0 0 Z " fill="#F8FBFB" transform="translate(365,242)"/>
<path d="M0 0 C2.5 3.75 2.3 5.9 2.31 10.38 C2.33 11.68 2.35 12.99 2.36 14.34 C1.96 18.42 0.92 21.08 -2 24 C-7.38 24.47 -7.38 24.47 -9.67 22.74 C-12.1 19.56 -11.51 15.86 -11.5 12 C-11.53 11.18 -11.56 10.36 -11.59 9.52 C-11.59 7.23 -11.53 5.22 -11 3 C-7.51 -0.05 -4.57 -0.61 0 0 Z " fill="#048E50" transform="translate(107,247)"/>
<path d="M0 0 C0.33 0.66 0.66 1.32 1 2 C2.65 2.66 4.3 3.32 6 4 C6 11.26 6 18.52 6 26 C4.35 26.33 2.7 26.66 1 27 C1 27.66 1 28.32 1 29 C6.94 29 12.88 29 19 29 C19 29.33 19 29.66 19 30 C12.4 30 5.8 30 -1 30 C-1 29.34 -1 28.68 -1 28 C-5.34 28.18 -5.34 28.18 -9 30 C-11.19 30.07 -13.38 30.08 -15.56 30.06 C-17.36 30.05 -17.36 30.05 -19.19 30.04 C-20.12 30.02 -21.05 30.01 -22 30 C-22 29.67 -22 29.34 -22 29 C-21.26 28.97 -20.53 28.95 -19.77 28.92 C-13.57 28.59 -13.57 28.59 -7.94 26.19 C-4.14 21.9 -3.69 18.46 -3.38 12.75 C-3.3 11.49 -3.23 10.22 -3.15 8.92 C-3.1 7.96 -3.05 6.99 -3 6 C-2.34 6 -1.68 6 -1 6 C-0.67 4.02 -0.34 2.04 0 0 Z " fill="#209562" transform="translate(119,244)"/>
<path d="M0 0 C2.3 3.44 2.54 5.94 3 10 C3.66 10 4.32 10 5 10 C5.22 11.79 5.43 13.58 5.62 15.38 C5.8 16.87 5.8 16.87 5.98 18.4 C5.98 19.26 5.99 20.12 6 21 C5.34 21.66 4.68 22.32 4 23 C4.33 22.67 4.66 22.34 5 22 C6.32 22 7.64 22 9 22 C9 22.99 9 23.98 9 25 C8.34 25 7.68 25 7 25 C7.33 25.66 7.66 26.32 8 27 C8.99 26.67 9.98 26.34 11 26 C11.66 26.33 12.32 26.66 13 27 C13 27.99 13 28.98 13 30 C12.53 30.41 12.05 30.82 11.56 31.25 C9.22 33.88 9.32 36.59 9 40 C8.67 40 8.34 40 8 40 C7.67 36.04 7.34 32.08 7 28 C0.4 28.33 -6.2 28.66 -13 29 C-13 26.69 -13 24.38 -13 22 C-12.34 21.67 -11.68 21.34 -11 21 C-11.33 20.34 -11.66 19.68 -12 19 C-11.01 19 -10.02 19 -9 19 C-9.33 13.06 -9.66 7.12 -10 1 C-6 2 -6 2 -4 5 C-3.74 6.96 -3.74 6.96 -3.73 9.16 C-3.73 9.95 -3.73 10.75 -3.73 11.56 C-3.73 12.39 -3.74 13.21 -3.75 14.06 C-3.74 14.89 -3.73 15.72 -3.73 16.57 C-3.73 17.36 -3.73 18.16 -3.73 18.97 C-3.74 19.7 -3.74 20.42 -3.74 21.17 C-4 23 -4 23 -6 25 C-6.99 25 -7.98 25 -9 25 C-9 25.66 -9 26.32 -9 27 C-4.05 27 0.9 27 6 27 C6 26.34 6 25.68 6 25 C4.68 25 3.36 25 2 25 C0.74 22.48 0.79 20.59 0.68 17.77 C0.64 16.74 0.6 15.71 0.56 14.65 C0.52 13.57 0.48 12.49 0.44 11.38 C0.39 10.29 0.35 9.2 0.31 8.08 C0.2 5.39 0.1 2.69 0 0 Z " fill="#0C8951" transform="translate(194,246)"/>
<path d="M0 0 C0 0.66 0 1.32 0 2 C0.62 2.25 1.24 2.5 1.88 2.75 C4.44 4.26 4.91 5.26 6 8 C6.23 10.2 6.23 10.2 6.2 12.55 C6.19 13.39 6.18 14.24 6.18 15.11 C6.16 15.98 6.14 16.85 6.12 17.75 C6.12 18.64 6.11 19.53 6.1 20.44 C6.07 22.63 6.04 24.81 6 27 C7.65 27 9.3 27 11 27 C10.67 27.99 10.34 28.98 10 30 C5.67 32.17 0.58 30.87 -4 30 C-4 29.34 -4 28.68 -4 28 C-5.98 28 -7.96 28 -10 28 C-11.41 25.17 -11.32 23.13 -11 20 C-9.38 18.12 -9.38 18.12 -7 17 C-3.75 16.81 -3.75 16.81 -1 17 C-0.96 17.63 -0.93 18.25 -0.89 18.9 C-0.82 19.72 -0.76 20.53 -0.69 21.38 C-0.63 22.19 -0.57 23 -0.51 23.84 C-0.17 26.38 -0.17 26.38 3 28 C3 28.66 3 29.32 3 30 C3.66 30 4.32 30 5 30 C4.5 18.12 4.5 18.12 4 6 C2.68 5.67 1.36 5.34 0 5 C0 7.97 0 10.94 0 14 C-0.33 14 -0.66 14 -1 14 C-1.06 13.36 -1.12 12.72 -1.18 12.07 C-1.27 11.24 -1.35 10.41 -1.44 9.56 C-1.52 8.74 -1.6 7.92 -1.68 7.07 C-1.79 5.01 -1.79 5.01 -3 4 C-5.33 3.96 -7.67 3.96 -10 4 C-10.33 6.31 -10.66 8.62 -11 11 C-12.98 11 -14.96 11 -17 11 C-16.78 7.12 -16.52 4.68 -14.12 1.56 C-9.49 -0.76 -5.09 -0.32 0 0 Z " fill="#BDE1D3" transform="translate(330,242)"/>
<path d="M0 0 C1.71 0.15 1.71 0.15 3.45 0.3 C5.14 0.43 5.14 0.43 6.88 0.56 C9.98 1.02 12.37 1.58 15.14 3.05 C16.16 6.2 16.44 8.14 15.39 11.3 C14.14 13.05 14.14 13.05 11.14 15.05 C8.54 15.35 8.54 15.35 5.64 15.36 C4.68 15.38 3.72 15.39 2.73 15.41 C0.14 15.05 0.14 15.05 -1.71 13.65 C-2.86 12.05 -2.86 12.05 -2.86 10.05 C-3.52 10.05 -4.18 10.05 -4.86 10.05 C-5.06 3.99 -5.06 3.99 -4.86 2.05 C-2.86 0.05 -2.86 0.05 0 0 Z " fill="#098C51" transform="translate(213.86328125,274.953125)"/>
<path d="M0 0 C0.33 0.66 0.66 1.32 1 2 C1.66 2 2.32 2 3 2 C3.55 5.7 4.06 9.39 4.43 13.11 C4.54 14.15 4.54 14.15 4.65 15.21 C4.8 16.63 4.94 18.05 5.07 19.48 C5.3 21.79 5.3 21.79 6 25 C9.25 27.17 10.23 27.55 14 27 C17.31 24.6 17.95 23.25 18.72 19.18 C18.85 17.75 18.97 16.31 19.06 14.88 C19.25 12.19 19.56 9.66 20 7 C20.99 6.34 21.98 5.68 23 5 C24.95 8.28 25.27 10.77 25.25 14.56 C25.26 15.51 25.26 16.46 25.27 17.44 C25 20 25 20 23 23 C22.34 23 21.68 23 21 23 C20.98 23.76 20.96 24.53 20.94 25.31 C20 28 20 28 17.12 29.81 C12.23 31.63 7.14 31.25 2 31 C2 30.34 2 29.68 2 29 C1.34 29 0.68 29 0 29 C0 19.43 0 9.86 0 0 Z " fill="#EEF8F7" transform="translate(246,243)"/>
<path d="M0 0 C0 9.24 0 18.48 0 28 C1.32 28 2.64 28 4 28 C4 28.66 4 29.32 4 30 C-1.28 30 -6.56 30 -12 30 C-12 29.34 -12 28.68 -12 28 C-10.68 28 -9.36 28 -8 28 C-8 19.75 -8 11.5 -8 3 C-9.32 3 -10.64 3 -12 3 C-12 2.34 -12 1.68 -12 1 C-7.82 0.2 -4.34 0 0 0 Z " fill="#F9FBFC" transform="translate(158,243)"/>
<path d="M0 0 C0.33 0 0.66 0 1 0 C1 12.87 1 25.74 1 39 C3.47 38.5 3.47 38.5 6 38 C6 36.87 6 35.74 6 34.57 C6 23.71 6 12.86 6 2 C6.33 2 6.66 2 7 2 C7.05 3.13 7.1 4.26 7.15 5.43 C7.22 6.91 7.3 8.39 7.38 9.88 C7.41 10.62 7.44 11.37 7.47 12.14 C7.56 16.53 7.56 16.53 10 20 C12.96 20.58 12.96 20.58 16 20 C19.21 16.03 19.52 12.11 19.69 7.19 C19.72 6.49 19.76 5.8 19.79 5.09 C19.87 3.39 19.94 1.7 20 0 C20.66 0.33 21.32 0.66 22 1 C22.29 2.99 22.57 4.99 22.75 6.99 C22.96 9.2 22.96 9.2 24 12 C24 12.66 24 13.32 24 14 C24.66 14 25.32 14 26 14 C24.63 18.47 23.15 20.76 19 23 C14.94 23.33 11.09 23.18 7 23 C7.33 27.95 7.66 32.9 8 38 C9.32 38.33 10.64 38.66 12 39 C12 39.66 12 40.32 12 41 C6.39 41 0.78 41 -5 41 C-5 40.34 -5 39.68 -5 39 C-3.02 38.5 -3.02 38.5 -1 38 C-0.67 25.46 -0.34 12.92 0 0 Z " fill="#C1E4D7" transform="translate(89,250)"/>
<path d="M0 0 C1.94 0.38 1.94 0.38 4 1 C4.33 1.66 4.66 2.32 5 3 C5.72 2.86 6.44 2.71 7.19 2.56 C8.12 2.38 9.04 2.19 10 2 C10.91 1.79 11.81 1.59 12.75 1.38 C13.49 1.25 14.24 1.13 15 1 C16.62 2.62 16.13 4.39 16.13 6.62 C16.13 7.56 16.14 8.49 16.14 9.46 C16.13 10.44 16.13 11.42 16.12 12.44 C16.13 13.91 16.13 13.91 16.14 15.41 C16.14 16.34 16.13 17.28 16.13 18.25 C16.13 19.11 16.13 19.97 16.13 20.86 C16 23 16 23 15 25 C9.25 25.12 9.25 25.12 7 24 C7 26.31 7 28.62 7 31 C6.34 30.67 5.68 30.34 5 30 C4.73 29.18 4.46 28.35 4.19 27.5 C3.6 26.26 3.6 26.26 3 25 C0.49 24.18 0.49 24.18 -2 24 C-4.23 21.77 -3.23 16.69 -3.25 13.69 C-3.27 12.82 -3.29 11.95 -3.31 11.06 C-3.35 4.61 -3.35 4.61 -1.48 1.39 C-0.99 0.93 -0.5 0.47 0 0 Z M-1 2 C-2.2 5.75 -2.1 9.33 -2.06 13.25 C-2.05 14.51 -2.04 15.78 -2.04 17.08 C-2.02 18.04 -2.01 19.01 -2 20 C-1.34 20 -0.68 20 0 20 C-0.33 20.99 -0.66 21.98 -1 23 C1.31 23.33 3.62 23.66 6 24 C6.33 23.01 6.66 22.02 7 21 C7.66 21 8.32 21 9 21 C9.66 21.99 10.32 22.98 11 24 C11.99 23.67 12.98 23.34 14 23 C13.5 20.24 13.5 20.24 12 18 C11.93 15.81 11.92 13.62 11.94 11.44 C11.95 10.24 11.96 9.04 11.96 7.81 C11.98 6.88 11.99 5.95 12 5 C8.7 5.33 5.4 5.66 2 6 C2.33 4.68 2.66 3.36 3 2 C1.68 2 0.36 2 -1 2 Z " fill="#108B53" transform="translate(135,246)"/>
<path d="M0 0 C0.33 0.99 0.66 1.98 1 3 C1.66 3 2.32 3 3 3 C3 6.96 3 10.92 3 15 C2.34 15 1.68 15 1 15 C1 15.66 1 16.32 1 17 C-2.38 17.92 -4.21 18.41 -7.38 16.75 C-9.9 12.47 -9.82 7.85 -9 3 C-6.43 -0.53 -4.21 -0.28 0 0 Z " fill="#138D56" transform="translate(221,245)"/>
<path d="M0 0 C0.03 0.57 0.05 1.13 0.08 1.71 C0.19 4.27 0.31 6.82 0.44 9.38 C0.48 10.26 0.52 11.15 0.56 12.07 C0.6 12.92 0.64 13.77 0.68 14.65 C0.72 15.43 0.76 16.22 0.79 17.03 C0.89 19.08 0.89 19.08 2 21 C1.34 21 0.68 21 0 21 C-0.03 23.63 -0.05 26.25 -0.06 28.88 C-0.07 29.62 -0.08 30.37 -0.09 31.14 C-0.21 35.2 -0.21 35.2 1 39 C-1.31 39 -3.62 39 -6 39 C-5.96 34.09 -5.89 29.18 -5.79 24.27 C-5.76 22.6 -5.74 20.93 -5.73 19.26 C-5.71 16.85 -5.66 14.45 -5.61 12.05 C-5.61 11.3 -5.61 10.56 -5.61 9.79 C-5.51 6.22 -5.26 4.34 -3.02 1.5 C-1 0 -1 0 0 0 Z " fill="#F8FBFC" transform="translate(95,251)"/>
<path d="M0 0 C2.31 0 4.62 0 7 0 C7 0.66 7 1.32 7 2 C7.99 2 8.98 2 10 2 C10 15.53 10 29.06 10 43 C8.68 43 7.36 43 6 43 C4.94 41.12 4.94 41.12 4 39 C4.33 38.34 4.66 37.68 5 37 C5.37 32.8 5.47 28.59 5.62 24.38 C5.68 23.21 5.73 22.05 5.78 20.85 C6.02 14.75 6 9.02 5 3 C3.35 2.67 1.7 2.34 0 2 C0 1.34 0 0.68 0 0 Z " fill="#FAFBFB" transform="translate(386,229)"/>
<path d="M0 0 C8.26 -0.35 15.24 0.06 23 3 C23.2 4.44 23.38 5.87 23.56 7.31 C23.67 8.11 23.77 8.91 23.88 9.74 C24 12 24 12 23 15 C22.01 15 21.02 15 20 15 C20 13.35 20 11.7 20 10 C19.34 10 18.68 10 18 10 C18 9.34 18 8.68 18 8 C17.43 7.89 16.86 7.78 16.27 7.66 C13.7 7.16 11.13 6.64 8.56 6.12 C7.66 5.95 6.77 5.78 5.84 5.6 C4.56 5.34 4.56 5.34 3.25 5.07 C2.46 4.91 1.67 4.76 0.86 4.59 C0.24 4.4 -0.37 4.2 -1 4 C-1.33 3.34 -1.66 2.68 -2 2 C-1.34 2 -0.68 2 0 2 C0 1.34 0 0.68 0 0 Z " fill="#E8F5EF" transform="translate(211,270)"/>
<path d="M0 0 C0.56 1.94 0.56 1.94 1 4 C0.67 4.33 0.34 4.66 0 5 C13.86 5.33 27.72 5.66 42 6 C42 5.01 42 4.02 42 3 C40.68 3 39.36 3 38 3 C38 2.01 38 1.02 38 0 C40.44 0.81 40.44 0.81 43 2 C43.5 3.49 43.5 3.49 44 5 C44.99 5.33 45.98 5.66 47 6 C47 6.66 47 7.32 47 8 C29.18 8 11.36 8 -7 8 C-5.62 3.86 -3.4 2.68 0 0 Z " fill="#A9D0C3" transform="translate(180,192)"/>
<path d="M0 0 C1.32 0.33 2.64 0.66 4 1 C4.33 7.93 4.66 14.86 5 22 C6.32 22 7.64 22 9 22 C9 22.66 9 23.32 9 24 C4.05 24 -0.9 24 -6 24 C-6 23.34 -6 22.68 -6 22 C-4.68 21.34 -3.36 20.68 -2 20 C-1.94 18.81 -1.88 17.62 -1.82 16.39 C-1.73 14.82 -1.65 13.25 -1.56 11.69 C-1.52 10.9 -1.48 10.12 -1.44 9.31 C-1.4 8.55 -1.36 7.79 -1.32 7.01 C-1.28 6.32 -1.24 5.62 -1.21 4.9 C-1 3 -1 3 0 0 Z " fill="#F9FDFC" transform="translate(191,249)"/>
<path d="M0 0 C2 2 2 2 2.12 4.62 C2.08 5.41 2.04 6.19 2 7 C0.35 7.33 -1.3 7.66 -3 8 C-3.33 6.68 -3.66 5.36 -4 4 C-5.32 4 -6.64 4 -8 4 C-10.55 8.84 -10.23 13.49 -10.12 18.81 C-10.11 20.14 -10.11 20.14 -10.1 21.49 C-10.07 23.66 -10.04 25.83 -10 28 C-10.99 28 -11.98 28 -13 28 C-12.99 27.44 -12.99 26.88 -12.98 26.3 C-12.96 23.76 -12.95 21.23 -12.94 18.69 C-12.93 17.81 -12.92 16.93 -12.91 16.02 C-12.91 15.17 -12.91 14.32 -12.9 13.45 C-12.9 12.67 -12.89 11.89 -12.89 11.08 C-12.92 8.8 -12.92 8.8 -14 6 C-14.99 6.33 -15.98 6.66 -17 7 C-19.69 5.69 -19.69 5.69 -22 4 C-22 3.34 -22 2.68 -22 2 C-18.7 1.67 -15.4 1.34 -12 1 C-11.67 2.32 -11.34 3.64 -11 5 C-10.67 4.01 -10.34 3.02 -10 2 C-6.77 -0.27 -3.87 -0.34 0 0 Z " fill="#E1F5EE" transform="translate(365,242)"/>
<path d="M0 0 C0.66 1.32 1.32 2.64 2 4 C13.88 4 25.76 4 38 4 C38.33 3.01 38.66 2.02 39 1 C39.99 0.67 40.98 0.34 42 0 C45.19 2.38 45.19 2.38 48 5 C48 5.33 48 5.66 48 6 C30.18 6 12.36 6 -6 6 C-4 4 -2 2 0 0 Z " fill="#DDFAF0" transform="translate(179,224)"/>
<path d="M0 0 C18.15 0 36.3 0 55 0 C55 0.33 55 0.66 55 1 C51.7 1 48.4 1 45 1 C45 1.66 45 2.32 45 3 C48.63 3 52.26 3 56 3 C56.33 2.01 56.66 1.02 57 0 C57.5 1.49 57.5 1.49 58 3 C54.93 6.07 44.37 4.91 40.08 5.01 C31.03 4.98 21.99 3.95 13 3 C13 2.67 13 2.34 13 2 C8.71 1.67 4.42 1.34 0 1 C0 0.67 0 0.34 0 0 Z " fill="#06864C" transform="translate(171,169)"/>
<path d="M0 0 C3.56 0.19 3.56 0.19 5.56 2.19 C5.76 4.35 5.76 4.35 5.69 6.81 C5.67 7.63 5.65 8.45 5.63 9.29 C5.61 9.92 5.59 10.54 5.56 11.19 C4.83 11.32 4.09 11.45 3.33 11.59 C2.36 11.77 1.38 11.94 0.38 12.12 C-0.59 12.3 -1.55 12.47 -2.54 12.65 C-5.18 13.14 -7.81 13.65 -10.44 14.19 C-10.77 12.54 -11.1 10.89 -11.44 9.19 C-8.8 9.19 -6.16 9.19 -3.44 9.19 C-3.62 7.89 -3.81 6.59 -4 5.25 C-4.32 3.04 -4.32 3.04 -4.44 1.19 C-3.44 0.19 -3.44 0.19 0 0 Z " fill="#0A8A51" transform="translate(323.4375,244.8125)"/>
<path d="M0 0 C0 2.64 0 5.28 0 8 C0.99 8 1.98 8 3 8 C2.34 12.95 1.68 17.9 1 23 C0.67 23 0.34 23 0 23 C-0.22 21.39 -0.22 21.39 -0.44 19.75 C-0.98 15.81 -0.98 15.81 -2 12 C-2.66 11.67 -3.32 11.34 -4 11 C-4.33 11.33 -4.66 11.66 -5 12 C-6.81 12.75 -6.81 12.75 -9 13 C-10.32 12.01 -11.64 11.02 -13 10 C-12.67 16.27 -12.34 22.54 -12 29 C-12.66 29 -13.32 29 -14 29 C-15.62 25.76 -15.23 22.24 -15.25 18.69 C-15.27 17.93 -15.29 17.17 -15.31 16.38 C-15.34 11.84 -15.16 8.56 -12 5 C-10.68 5 -9.36 5 -8 5 C-7.67 6.32 -7.34 7.64 -7 9 C-5.68 8.67 -4.36 8.34 -3 8 C-2.85 4.37 -2.85 4.37 -4 1 C-2 0 -2 0 0 0 Z " fill="#239261" transform="translate(369,241)"/>
<path d="M0 0 C2.3 3.44 2.54 5.94 3 10 C3.66 10 4.32 10 5 10 C5.22 11.79 5.43 13.58 5.62 15.38 C5.74 16.37 5.86 17.37 5.98 18.4 C5.98 19.26 5.99 20.12 6 21 C5.34 21.66 4.68 22.32 4 23 C4.33 22.67 4.66 22.34 5 22 C6.32 22 7.64 22 9 22 C9 22.99 9 23.98 9 25 C8.34 25 7.68 25 7 25 C7.33 25.66 7.66 26.32 8 27 C8.99 26.67 9.98 26.34 11 26 C11.66 26.33 12.32 26.66 13 27 C13 27.99 13 28.98 13 30 C12.53 30.41 12.05 30.82 11.56 31.25 C9.22 33.88 9.32 36.59 9 40 C8.67 40 8.34 40 8 40 C7.67 36.04 7.34 32.08 7 28 C1.72 28 -3.56 28 -9 28 C-9 27.67 -9 27.34 -9 27 C-4.05 27 0.9 27 6 27 C6 26.34 6 25.68 6 25 C4.68 25 3.36 25 2 25 C0.74 22.48 0.79 20.59 0.68 17.77 C0.64 16.74 0.6 15.71 0.56 14.65 C0.52 13.57 0.48 12.49 0.44 11.38 C0.39 10.29 0.35 9.2 0.31 8.08 C0.2 5.39 0.1 2.69 0 0 Z " fill="#2C9A68" transform="translate(194,246)"/>
<path d="M0 0 C1.07 3.46 1.1 6.64 1.06 10.25 C1.05 11.33 1.04 12.41 1.04 13.52 C1.02 14.34 1.01 15.16 1 16 C1.66 16 2.32 16 3 16 C3 16.99 3 17.98 3 19 C3.66 19 4.32 19 5 19 C5 18.34 5 17.68 5 17 C5.99 16.67 6.98 16.34 8 16 C8.66 15.01 9.32 14.02 10 13 C9.52 18.45 9.52 18.45 7.25 20.88 C4.53 22.24 3.01 22.45 0 22 C-2.14 21.02 -2.14 21.02 -4 19 C-4.51 16.09 -4.38 13.25 -4.25 10.31 C-4.23 9.52 -4.21 8.72 -4.2 7.9 C-4.15 5.93 -4.08 3.97 -4 2 C-2.68 1.34 -1.36 0.68 0 0 Z " fill="#15925B" transform="translate(255,249)"/>
<path d="M0 0 C2.5 3.75 2.3 5.9 2.31 10.38 C2.33 11.68 2.35 12.99 2.36 14.34 C1.96 18.42 0.92 21.08 -2 24 C-4 24.04 -6 24.04 -8 24 C-9.12 20.25 -9.12 20.25 -8 18 C-6.02 18.33 -4.04 18.66 -2 19 C-2 15.37 -2 11.74 -2 8 C-1.34 8 -0.68 8 0 8 C-0.33 7.01 -0.66 6.02 -1 5 C-1.99 4.67 -2.98 4.34 -4 4 C-4 3.34 -4 2.68 -4 2 C-6.31 2.66 -8.62 3.32 -11 4 C-8.05 -0.42 -5.07 -0.43 0 0 Z " fill="#0D8B54" transform="translate(107,247)"/>
<path d="M0 0 C0.33 13.86 0.66 27.72 1 42 C2.32 42.33 3.64 42.66 5 43 C5 43.66 5 44.32 5 45 C-0.44 45.5 -0.44 45.5 -6 46 C-6 45.34 -6 44.68 -6 44 C-10.29 43.67 -14.58 43.34 -19 43 C-18.67 41.68 -18.34 40.36 -18 39 C-17.67 39.99 -17.34 40.98 -17 42 C-14.03 42 -11.06 42 -8 42 C-8 41.34 -8 40.68 -8 40 C-5.49 41.26 -4.26 42.49 -3 45 C-2.34 45 -1.68 45 -1 45 C-1.16 44.42 -1.33 43.84 -1.5 43.24 C-2.29 39.69 -2 36.13 -1.88 32.52 C-1.86 31.7 -1.83 30.88 -1.81 30.04 C-1.73 27.45 -1.65 24.85 -1.56 22.25 C-1.51 20.49 -1.46 18.72 -1.4 16.96 C-1.28 12.64 -1.14 8.32 -1 4 C-1.99 4 -2.98 4 -4 4 C-4 3.34 -4 2.68 -4 2 C-6.31 2 -8.62 2 -11 2 C-11 2.66 -11 3.32 -11 4 C-11.66 4 -12.32 4 -13 4 C-12.67 3.01 -12.34 2.02 -12 1 C-10.56 0.83 -9.13 0.67 -7.69 0.5 C-6.89 0.41 -6.09 0.31 -5.26 0.22 C-3 0 -3 0 0 0 Z " fill="#DAFFF7" transform="translate(397,227)"/>
<path d="M0 0 C2.94 2 2.94 2 5 4 C4.69 5.88 4.69 5.88 4 8 C3.01 8.66 2.02 9.32 1 10 C0.65 9.34 0.3 8.68 -0.06 8 C-1.94 5.64 -1.94 5.64 -5.44 5.56 C-9.04 6.01 -10.43 6.53 -13 9 C-13.33 8.01 -13.66 7.02 -14 6 C-14.66 5.67 -15.32 5.34 -16 5 C-16 4.34 -16 3.68 -16 3 C-18.64 3.33 -21.28 3.66 -24 4 C-24 3.34 -24 2.68 -24 2 C-18.56 1.5 -18.56 1.5 -13 1 C-12.67 1.66 -12.34 2.32 -12 3 C-11.32 2.5 -10.64 2.01 -9.94 1.5 C-6.28 -0.37 -4.07 -0.51 0 0 Z " fill="#EAF5F0" transform="translate(189,242)"/>
<path d="M0 0 C0.33 0 0.66 0 1 0 C1.66 2.97 2.32 5.94 3 9 C3.66 8.34 4.32 7.68 5 7 C5.12 8.58 5.12 8.58 5.25 10.19 C6.05 14.27 7.19 16.01 10 19 C9.22 19.12 8.43 19.25 7.62 19.38 C4.81 20.73 4.81 20.73 4.22 23.36 C3.73 25.9 3.32 28.43 3 31 C1 28 1 28 1 26 C1.66 26 2.32 26 3 26 C3 25.01 3 24.02 3 23 C1.68 23 0.36 23 -1 23 C-1 23.66 -1 24.32 -1 25 C-1.66 24.67 -2.32 24.34 -3 24 C-2.67 23.42 -2.34 22.85 -2 22.25 C-0.73 19.8 -0.73 19.8 -1 16 C0.32 15.67 1.64 15.34 3 15 C3.33 13.68 3.66 12.36 4 11 C3.34 11 2.68 11 2 11 C1.67 11.99 1.34 12.98 1 14 C0.67 14 0.34 14 0 14 C-0.2 12.23 -0.38 10.46 -0.56 8.69 C-0.67 7.7 -0.77 6.72 -0.88 5.7 C-1 3 -1 3 0 0 Z " fill="#0B8A4F" transform="translate(200,245)"/>
<path d="M0 0 C1.94 0.31 1.94 0.31 4 1 C4.98 3.94 5.12 5.83 5.1 8.89 C5.09 10.29 5.09 10.29 5.09 11.73 C5.08 12.7 5.07 13.68 5.06 14.69 C5.06 15.68 5.05 16.66 5.05 17.68 C5.04 20.12 5.02 22.56 5 25 C1.16 24.22 1.16 24.22 -0.28 22.23 C-1.12 19.65 -0.99 18.04 -0.56 15.38 C0.06 12.07 0.06 12.07 -1 9 C-0.91 7.45 -0.76 5.91 -0.56 4.38 C-0.46 3.56 -0.36 2.74 -0.25 1.9 C-0.17 1.27 -0.09 0.65 0 0 Z " fill="#F7FAFA" transform="translate(330,247)"/>
<path d="M0 0 C0.33 0.66 0.66 1.32 1 2 C1.66 2 2.32 2 3 2 C3.91 7.64 4.3 13.23 4.56 18.94 C4.61 19.81 4.65 20.69 4.69 21.59 C4.8 23.73 4.9 25.86 5 28 C5.66 28.33 6.32 28.66 7 29 C4.69 29 2.38 29 0 29 C0 19.43 0 9.86 0 0 Z " fill="#FBFAFD" transform="translate(246,243)"/>
<path d="M0 0 C1.88 0.25 1.88 0.25 4 1 C6.23 4.36 6.45 7.67 6.75 11.62 C6.85 12.77 6.95 13.92 7.05 15.1 C7 18 7 18 5 20 C0.19 16.55 0.19 16.55 -0.65 14.14 C-1.02 11.87 -1.13 9.74 -1.12 7.44 C-1.13 6.67 -1.13 5.91 -1.13 5.12 C-1 3 -1 3 0 0 Z " fill="#E0F0EB" transform="translate(278,250)"/>
<path d="M0 0 C1.32 0.33 2.64 0.66 4 1 C4 7.93 4 14.86 4 22 C3.67 21.01 3.34 20.02 3 19 C2.01 19 1.02 19 0 19 C0 19.66 0 20.32 0 21 C-0.66 21 -1.32 21 -2 21 C-1.67 17.7 -1.34 14.4 -1 11 C-1.66 11.99 -2.32 12.98 -3 14 C-4 13 -4 13 -4.06 9.44 C-4.04 8.3 -4.02 7.17 -4 6 C-3.01 6 -2.02 6 -1 6 C-1.31 5.07 -1.31 5.07 -1.62 4.12 C-1.81 3.07 -1.81 3.07 -2 2 C-1.34 1.34 -0.68 0.68 0 0 Z " fill="#028F4E" transform="translate(121,247)"/>
<path d="M0 0 C0.33 0 0.66 0 1 0 C1 13.2 1 26.4 1 40 C0.67 40 0.34 40 0 40 C0 32.41 0 24.82 0 17 C-0.66 17 -1.32 17 -2 17 C-2 18.32 -2 19.64 -2 21 C-2.66 21 -3.32 21 -4 21 C-4 20.34 -4 19.68 -4 19 C-4.66 19 -5.32 19 -6 19 C-6 15.04 -6 11.08 -6 7 C-6.66 7 -7.32 7 -8 7 C-8 6.34 -8 5.68 -8 5 C-7.01 5.33 -6.02 5.66 -5 6 C-4.67 9.3 -4.34 12.6 -4 16 C-4.02 15.05 -4.04 14.1 -4.06 13.12 C-4 10 -4 10 -3 8 C-2.34 8 -1.68 8 -1 8 C-0.67 5.36 -0.34 2.72 0 0 Z " fill="#0F8854" transform="translate(88,248)"/>
<path d="M0 0 C3 1.5 3 1.5 6 3 C-0.26 9.61 -0.26 9.61 -5.37 10.34 C-11.28 10.43 -14.45 9.83 -19 6 C-18.67 5.34 -18.34 4.68 -18 4 C-17.01 4 -16.02 4 -15 4 C-14.34 3.01 -13.68 2.02 -13 1 C-12.71 1.64 -12.42 2.28 -12.12 2.94 C-11.17 5.15 -11.17 5.15 -9 6 C-7 6.04 -5 6.04 -3 6 C-2.01 4.02 -1.02 2.04 0 0 Z " fill="#CFE9DF" transform="translate(299,264)"/>
<path d="M0 0 C0.29 6.05 0.29 6.05 0 8 C-3.44 10.29 -4.97 10.26 -9 10 C-10 9 -10 9 -10.31 6.12 C-10 3 -10 3 -8.38 1.12 C-5.43 -0.27 -3.22 -0.22 0 0 Z " fill="#119359" transform="translate(329,259)"/>
<path d="M0 0 C2.38 0.31 2.38 0.31 5 1 C7.49 4.74 7.21 6.74 7.12 11.19 C7.11 12.46 7.09 13.73 7.07 15.04 C7.04 16.51 7.04 16.51 7 18 C5.68 18.33 4.36 18.66 3 19 C3 17.35 3 15.7 3 14 C2.67 14 2.34 14 2 14 C1.94 13.41 1.88 12.82 1.82 12.21 C1.38 8.09 0.91 4.04 0 0 Z " fill="#EEF7F3" transform="translate(109,246)"/>
<path d="M0 0 C0.33 0.66 0.66 1.32 1 2 C1.66 2.16 2.32 2.33 3 2.5 C3.66 2.66 4.32 2.83 5 3 C6.26 5.52 6.1 7.31 6.06 10.12 C6.05 11.04 6.04 11.95 6.04 12.88 C6.02 13.58 6.01 14.28 6 15 C4.35 15 2.7 15 1 15 C-0.91 8.49 -0.91 8.49 -1.5 5.12 C-1.67 4.42 -1.83 3.72 -2 3 C-2.66 2.67 -3.32 2.34 -4 2 C-2.68 1.34 -1.36 0.68 0 0 Z " fill="#F4F9F8" transform="translate(75,251)"/>
<path d="M0 0 C0.33 1.32 0.66 2.64 1 4 C1.66 4 2.32 4 3 4 C3 9.94 3 15.88 3 22 C1.02 22 -0.96 22 -3 22 C-2.67 21.34 -2.34 20.68 -2 20 C-1.86 18.56 -1.77 17.12 -1.72 15.68 C-1.68 14.84 -1.64 13.99 -1.61 13.12 C-1.54 11.33 -1.46 9.54 -1.39 7.74 C-1.36 6.9 -1.32 6.05 -1.28 5.18 C-1.25 4.41 -1.22 3.63 -1.19 2.83 C-1 1 -1 1 0 0 Z " fill="#FAFBFD" transform="translate(172,250)"/>
<path d="M0 0 C0.66 0.33 1.32 0.66 2 1 C2.42 7.06 2.13 10.2 -2 15 C-6.53 18.98 -12.24 18.71 -18 19 C-17.01 18.34 -16.02 17.68 -15 17 C-15.66 16.34 -16.32 15.68 -17 15 C-14.02 14.71 -14.02 14.71 -11.04 14.41 C-8.7 14.07 -8.7 14.07 -6 12 C-4.78 8.44 -4.78 8.44 -4 5 C-3.67 5 -3.34 5 -3 5 C-3 6.65 -3 8.3 -3 10 C-2.01 10 -1.02 10 0 10 C0 6.7 0 3.4 0 0 Z " fill="#CAECDF" transform="translate(234,275)"/>
<path d="M0 0 C0.33 0 0.66 0 1 0 C1 9.24 1 18.48 1 28 C2.32 28 3.64 28 5 28 C5 28.66 5 29.32 5 30 C-0.28 30 -5.56 30 -11 30 C-11 29.34 -11 28.68 -11 28 C-9.68 28 -8.36 28 -7 28 C-6.67 21.73 -6.34 15.46 -6 9 C-5.67 9 -5.34 9 -5 9 C-4.67 15.27 -4.34 21.54 -4 28 C-3.01 28 -2.02 28 -1 28 C-0.67 18.76 -0.34 9.52 0 0 Z " fill="#BDE5D4" transform="translate(157,243)"/>
<path d="M0 0 C0.33 0 0.66 0 1 0 C1.03 3.46 1.05 6.92 1.06 10.38 C1.07 11.36 1.08 12.34 1.09 13.36 C1.09 14.3 1.09 15.24 1.1 16.21 C1.1 17.08 1.11 17.95 1.11 18.85 C1 21 1 21 0 23 C-1.32 23 -2.64 23 -4 23 C-4 23.66 -4 24.32 -4 25 C1.61 25 7.22 25 13 25 C13 24.34 13 23.68 13 23 C13.66 23 14.32 23 15 23 C14.67 23.99 14.34 24.98 14 26 C10.88 26.09 7.75 26.14 4.62 26.19 C3.74 26.21 2.85 26.24 1.93 26.26 C0.65 26.28 0.65 26.28 -0.65 26.29 C-1.83 26.32 -1.83 26.32 -3.03 26.34 C-3.68 26.23 -4.33 26.12 -5 26 C-5.66 25.01 -6.32 24.02 -7 23 C-6.67 22.34 -6.34 21.68 -6 21 C-7.32 20.34 -8.64 19.68 -10 19 C-7.69 19 -5.38 19 -3 19 C-3 19.66 -3 20.32 -3 21 C-2.34 21 -1.68 21 -1 21 C-0.67 14.07 -0.34 7.14 0 0 Z " fill="#469E78" transform="translate(347,248)"/>
<path d="M0 0 C3 1.5 3 1.5 5 3 C3.68 3.33 2.36 3.66 1 4 C0.67 5.32 0.34 6.64 0 8 C-0.33 7.34 -0.66 6.68 -1 6 C-2.05 6.13 -2.05 6.13 -3.12 6.25 C-4.03 6.36 -4.94 6.46 -5.88 6.56 C-6.78 6.67 -7.68 6.77 -8.62 6.88 C-11 7 -11 7 -13 6 C-13 4 -13 4 -11 1.88 C-7.18 -0.51 -4.4 -0.77 0 0 Z " fill="#DCF0EA" transform="translate(108,242)"/>
<path d="M0 0 C0.66 0.33 1.32 0.66 2 1 C2 3.31 2 5.62 2 8 C-0.44 7.62 -0.44 7.62 -3 7 C-3.33 6.34 -3.66 5.68 -4 5 C-6.87 5.57 -7.86 5.86 -10 8 C-10 7.34 -10 6.68 -10 6 C-10.66 6 -11.32 6 -12 6 C-12 4.35 -12 2.7 -12 1 C-10.02 1.99 -10.02 1.99 -8 3 C-8 2.34 -8 1.68 -8 1 C-5.26 -0.37 -3.03 -0.13 0 0 Z " fill="#E6F2EF" transform="translate(142,242)"/>
<path d="M0 0 C1.08 0.37 1.08 0.37 2.19 0.75 C-0.14 1.96 -2.31 2.92 -4.81 3.75 C-5.1 4.35 -5.39 4.95 -5.69 5.56 C-7.19 8.49 -9.19 9.78 -11.81 11.75 C-12.85 12.69 -13.9 13.62 -14.94 14.56 C-16.36 15.65 -16.36 15.65 -17.81 16.75 C-18.8 16.42 -19.79 16.09 -20.81 15.75 C-17.52 11.43 -14.15 8.29 -9.73 5.14 C-7.62 3.66 -7.62 3.66 -5.12 1.31 C-2.81 -0.25 -2.81 -0.25 0 0 Z " fill="#E6F3EF" transform="translate(200.8125,208.25)"/>
<path d="M0 0 C0.33 0 0.66 0 1 0 C1 6.27 1 12.54 1 19 C2.65 19 4.3 19 6 19 C5.67 19.99 5.34 20.98 5 22 C0.67 24.17 -4.42 22.87 -9 22 C-9 21.34 -9 20.68 -9 20 C-10.98 20 -12.96 20 -15 20 C-15 19.67 -15 19.34 -15 19 C-6.86 16.58 -6.86 16.58 -3.44 18.25 C-2 20 -2 20 -2 22 C-1.34 22 -0.68 22 0 22 C0 14.74 0 7.48 0 0 Z " fill="#B6DDCE" transform="translate(335,250)"/>
<path d="M0 0 C1.58 -0.05 3.17 -0.09 4.75 -0.12 C5.63 -0.15 6.51 -0.17 7.42 -0.2 C10.11 0.01 11.7 0.63 14 2 C14 2.99 14 3.98 14 5 C12.08 5.05 10.17 5.09 8.25 5.12 C6.65 5.16 6.65 5.16 5.02 5.2 C2.08 5 0.48 4.53 -2 3 C-1.34 2.67 -0.68 2.34 0 2 C0 1.34 0 0.68 0 0 Z " fill="#F6FAFB" transform="translate(211,270)"/>
<path d="M0 0 C1.65 0.33 3.3 0.66 5 1 C5 4.63 5 8.26 5 12 C4.34 11.34 3.68 10.68 3 10 C3 11.32 3 12.64 3 14 C1.35 13.67 -0.3 13.34 -2 13 C-1.34 12.67 -0.68 12.34 0 12 C-0.33 11.01 -0.66 10.02 -1 9 C-1.18 6.31 -1.09 3.71 -1 1 C-0.67 0.67 -0.34 0.34 0 0 Z " fill="#068D51" transform="translate(218,247)"/>
<path d="M0 0 C2 2 2 2 2.12 4.62 C2.08 5.41 2.04 6.19 2 7 C0.35 7.33 -1.3 7.66 -3 8 C-3.33 6.68 -3.66 5.36 -4 4 C-5.32 4 -6.64 4 -8 4 C-8.33 4.99 -8.66 5.98 -9 7 C-9.66 6.34 -10.32 5.68 -11 5 C-10 2 -10 2 -8.31 0.81 C-5.39 -0.21 -3.07 -0.27 0 0 Z " fill="#CAEBE0" transform="translate(365,242)"/>
<path d="M0 0 C0.33 0 0.66 0 1 0 C1 1.98 1 3.96 1 6 C2.65 6 4.3 6 6 6 C0.86 12.57 0.86 12.57 -3 14 C-5.8 14.2 -5.8 14.2 -8.75 14.12 C-9.73 14.11 -10.72 14.09 -11.73 14.07 C-12.86 14.04 -12.86 14.04 -14 14 C-12 11 -12 11 -9.91 10.34 C-9.11 10.21 -8.32 10.07 -7.5 9.94 C-3.83 9.36 -3.83 9.36 -1 7 C-0.6 4.68 -0.26 2.34 0 0 Z " fill="#D8EFE7" transform="translate(75,260)"/>
<path d="M0 0 C0.66 0.33 1.32 0.66 2 1 C2.29 2.99 2.57 4.99 2.75 6.99 C2.96 9.2 2.96 9.2 4 12 C4 12.66 4 13.32 4 14 C4.66 14 5.32 14 6 14 C5.31 16.44 5.31 16.44 4 19 C2.35 19.33 0.7 19.66 -1 20 C-0.67 13.4 -0.34 6.8 0 0 Z " fill="#DAEEE8" transform="translate(109,250)"/>
<path d="M0 0 C1.79 1.39 1.79 1.39 3 3 C2.69 5.19 2.69 5.19 2 7 C1.01 6.67 0.02 6.34 -1 6 C-1.33 5.34 -1.66 4.68 -2 4 C-6.79 3.77 -6.79 3.77 -11 6 C-12.32 5.01 -13.64 4.02 -15 3 C-10.18 0.03 -5.58 -1.08 0 0 Z " fill="#CDE9DF" transform="translate(223,242)"/>
<path d="M0 0 C11.52 -0.18 11.52 -0.18 17 1 C17 4.63 17 8.26 17 12 C14 9 14 9 13.31 6.94 C11.68 4.53 10.9 4.55 8.12 3.94 C7.45 3.82 6.77 3.71 6.07 3.59 C3.57 2.88 1.99 1.65 0 0 Z " fill="#D1EEE3" transform="translate(62,228)"/>
<path d="M0 0 C2 2 2 2 2 5 C3.32 5.33 4.64 5.66 6 6 C6 6.66 6 7.32 6 8 C2.37 8.33 -1.26 8.66 -5 9 C-5 8.34 -5 7.68 -5 7 C-9.29 6.67 -13.58 6.34 -18 6 C-17.67 4.68 -17.34 3.36 -17 2 C-16.67 2.99 -16.34 3.98 -16 5 C-13.03 5 -10.06 5 -7 5 C-7 4.34 -7 3.68 -7 3 C-4.49 4.26 -3.26 5.49 -2 8 C-1.34 8 -0.68 8 0 8 C-0.19 7.42 -0.37 6.85 -0.56 6.25 C-1.04 3.79 -0.76 2.36 0 0 Z " fill="#DAF2EB" transform="translate(396,264)"/>
<path d="M0 0 C1.33 2.67 0.67 4.17 0 7 C1.98 7 3.96 7 6 7 C6.33 6.01 6.66 5.02 7 4 C7 5.32 7 6.64 7 8 C4.36 8 1.72 8 -1 8 C-0.66 10.47 -0.66 10.47 0 13 C0.66 13.33 1.32 13.66 2 14 C1.01 15.49 1.01 15.49 0 17 C-0.24 19.06 -0.24 19.06 -0.12 21.19 C-0.08 22.45 -0.04 23.7 0 25 C-0.66 25.33 -1.32 25.66 -2 26 C-2.75 20.17 -3.13 14.37 -3.25 8.5 C-3.28 7.31 -3.3 6.13 -3.33 4.91 C-3.22 3.95 -3.11 2.99 -3 2 C-2.01 1.34 -1.02 0.68 0 0 Z " fill="#259364" transform="translate(313,246)"/>
<path d="M0 0 C2 1 2 1 5 3 C5.41 5.71 5.13 8.24 5 11 C4.01 11.33 3.02 11.66 2 12 C1.67 12.66 1.34 13.32 1 14 C0.34 13.67 -0.32 13.34 -1 13 C-0.67 8.71 -0.34 4.42 0 0 Z " fill="#F2F9F8" transform="translate(301,254)"/>
<path d="M0 0 C2 2 2 2 2.23 3.88 C2.22 4.62 2.21 5.37 2.2 6.13 C2.19 6.94 2.18 7.74 2.18 8.57 C2.16 9.42 2.14 10.26 2.12 11.12 C2.12 11.97 2.11 12.82 2.1 13.7 C2.07 15.8 2.04 17.9 2 20 C1.34 19.01 0.68 18.02 0 17 C0 17.99 0 18.98 0 20 C-1.32 20.33 -2.64 20.66 -4 21 C-3.67 20.34 -3.34 19.68 -3 19 C-2.77 15.62 -2.61 12.24 -2.48 8.85 C-2.3 5.1 -2.13 3.2 0 0 Z " fill="#2D9F6C" transform="translate(188,249)"/>
<path d="M0 0 C1.32 0.33 2.64 0.66 4 1 C4.11 6.46 3.92 11.62 3 17 C1.25 14.38 0.61 12.96 0 10 C-0.99 10.5 -0.99 10.5 -2 11 C-2.25 3.38 -2.25 3.38 0 0 Z " fill="#F6F9F9" transform="translate(372,250)"/>
<path d="M0 0 C2.04 1.62 4.04 3.29 6 5 C6 5.66 6 6.32 6 7 C7.32 7 8.64 7 10 7 C10 7.66 10 8.32 10 9 C5.05 9 0.1 9 -5 9 C-5 8.34 -5 7.68 -5 7 C-4.04 6.66 -4.04 6.66 -3.06 6.31 C-0.73 5.15 -0.73 5.15 -0.25 2.38 C-0.17 1.59 -0.09 0.81 0 0 Z " fill="#E4F6EE" transform="translate(190,264)"/>
<path d="M0 0 C1.94 0.81 1.94 0.81 4 2 C5.12 5.36 5.13 7.96 5.12 11.5 C5.13 12.64 5.13 13.79 5.13 14.97 C5 18 5 18 4 21 C1.94 22.19 1.94 22.19 0 23 C0 21.68 0 20.36 0 19 C0.99 18.34 1.98 17.68 3 17 C3.44 14.44 3.44 14.44 3.31 11.56 C3.31 10.59 3.3 9.63 3.3 8.63 C3.18 5.77 3.18 5.77 1 3 C-0.74 4.74 -0.37 7.19 -0.56 9.56 C-0.65 10.57 -0.73 11.59 -0.82 12.63 C-0.88 13.41 -0.94 14.19 -1 15 C-1.33 15 -1.66 15 -2 15 C-2.33 10.71 -2.66 6.42 -3 2 C-2.01 1.34 -1.02 0.68 0 0 Z " fill="#D0ECE3" transform="translate(267,246)"/>
<path d="M0 0 C1.32 0 2.64 0 4 0 C4 3.96 4 7.92 4 12 C2.35 11.67 0.7 11.34 -1 11 C-1.03 9.35 -1.05 7.71 -1.06 6.06 C-1.07 5.15 -1.09 4.23 -1.1 3.29 C-1 1 -1 1 0 0 Z " fill="#EDFAF8" transform="translate(205,276)"/>
<path d="M0 0 C0.33 0 0.66 0 1 0 C1.33 6.27 1.66 12.54 2 19 C4.47 19.99 4.47 19.99 7 21 C7 21.66 7 22.32 7 23 C1.06 23 -4.88 23 -11 23 C-11 22.34 -11 21.68 -11 21 C-7.7 21.33 -4.4 21.66 -1 22 C-0.67 14.74 -0.34 7.48 0 0 Z " fill="#C6E6D7" transform="translate(131,250)"/>
<path d="M0 0 C0.33 2.97 0.66 5.94 1 9 C2.32 9.33 3.64 9.66 5 10 C4.67 10.66 4.34 11.32 4 12 C-1.75 12.12 -1.75 12.12 -4 11 C-4.08 9.54 -4.14 8.08 -4.19 6.62 C-4.22 5.81 -4.26 5 -4.29 4.16 C-4.2 3.45 -4.1 2.74 -4 2 C-1 0 -1 0 0 0 Z " fill="#048F50" transform="translate(385,256)"/>
<path d="M0 0 C1.32 0 2.64 0 4 0 C4.33 1.32 4.66 2.64 5 4 C5.66 4 6.32 4 7 4 C7.25 5.94 7.47 7.87 7.69 9.81 C7.82 10.89 7.94 11.97 8.07 13.08 C8 16 8 16 6.64 17.89 C5 19 5 19 3 19 C3 13.06 3 7.12 3 1 C2.01 0.67 1.02 0.34 0 0 Z " fill="#329B6C" transform="translate(248,227)"/>
<path d="M0 0 C0.99 0 1.98 0 3 0 C3.33 1.32 3.66 2.64 4 4 C2.35 4.33 0.7 4.66 -1 5 C-1 5.66 -1 6.32 -1 7 C4.94 7 10.88 7 17 7 C17 7.33 17 7.66 17 8 C10.4 8 3.8 8 -3 8 C-3 7.34 -3 6.68 -3 6 C-3.66 5.67 -4.32 5.34 -5 5 C-4.34 4.01 -3.68 3.02 -3 2 C-2.01 2 -1.02 2 0 2 C0 1.34 0 0.68 0 0 Z " fill="#2C996A" transform="translate(121,266)"/>
<path d="M0 0 C0.66 0.66 1.32 1.32 2 2 C2.99 1.67 3.98 1.34 5 1 C5.66 1.33 6.32 1.66 7 2 C7 2.99 7 3.98 7 5 C6.53 5.41 6.05 5.82 5.56 6.25 C3.22 8.88 3.32 11.59 3 15 C2.67 15 2.34 15 2 15 C1.67 11.04 1.34 7.08 1 3 C-4.28 3 -9.56 3 -15 3 C-15 2.67 -15 2.34 -15 2 C-10.05 2 -5.1 2 0 2 C0 1.34 0 0.68 0 0 Z " fill="#409F74" transform="translate(200,271)"/>
<path d="M0 0 C0.66 0.66 1.32 1.32 2 2 C1.98 4.16 1.98 4.16 1.62 6.62 C1.46 7.85 1.46 7.85 1.29 9.1 C1.15 10.04 1.15 10.04 1 11 C0.67 11 0.34 11 0 11 C0 8.36 0 5.72 0 3 C-5.13 4.12 -5.13 4.12 -10 6 C-10 5.01 -10 4.02 -10 3 C-11.32 3.33 -12.64 3.66 -14 4 C-10.05 -0.55 -5.82 -0.32 0 0 Z " fill="#C7E7D9" transform="translate(329,256)"/>
<path d="M0 0 C0.66 0.33 1.32 0.66 2 1 C3 4.01 3.1 6.04 3.06 9.19 C3.05 10.09 3.04 10.99 3.04 11.92 C3.02 12.61 3.01 13.29 3 14 C2.34 13.67 1.68 13.34 1 13 C1 12.34 1 11.68 1 11 C0.67 11.66 0.34 12.32 0 13 C-0.66 13 -1.32 13 -2 13 C-2.05 11.21 -2.09 9.42 -2.12 7.62 C-2.15 6.63 -2.17 5.63 -2.2 4.6 C-2 2 -2 2 0 0 Z " fill="#FBFAFD" transform="translate(268,248)"/>
<path d="M0 0 C0 2.64 0 5.28 0 8 C0.99 8 1.98 8 3 8 C2.34 12.95 1.68 17.9 1 23 C0.67 23 0.34 23 0 23 C-0.14 21.93 -0.29 20.86 -0.44 19.75 C-0.98 15.81 -0.98 15.81 -2 12 C-2.66 11.67 -3.32 11.34 -4 11 C-3.34 11 -2.68 11 -2 11 C-2.22 9.08 -2.22 9.08 -2.44 7.12 C-2.52 6.41 -2.6 5.69 -2.68 4.95 C-2.91 2.93 -2.91 2.93 -4 1 C-2 0 -2 0 0 0 Z " fill="#1D9161" transform="translate(369,241)"/>
<path d="M0 0 C0.33 0.66 0.66 1.32 1 2 C1.99 1.67 2.98 1.34 4 1 C4 1.66 4 2.32 4 3 C6.64 3 9.28 3 12 3 C11.67 3.66 11.34 4.32 11 5 C9.93 4.94 8.85 4.88 7.75 4.81 C3.89 5.01 2.71 5.4 0 8 C-0.33 7.01 -0.66 6.02 -1 5 C-1.66 4.67 -2.32 4.34 -3 4 C-3 3.34 -3 2.68 -3 2 C-5.64 2.33 -8.28 2.66 -11 3 C-11 2.34 -11 1.68 -11 1 C-7.28 0.31 -3.79 -0.11 0 0 Z " fill="#D3EEE5" transform="translate(176,243)"/>
<path d="M0 0 C2.31 0 4.62 0 7 0 C7.33 1.65 7.66 3.3 8 5 C5 7 5 7 2.31 6.62 C1.55 6.42 0.79 6.21 0 6 C0 4.02 0 2.04 0 0 Z " fill="#CFEBE1" transform="translate(150,229)"/>
<path d="M0 0 C0.66 0 1.32 0 2 0 C2 0.66 2 1.32 2 2 C3.32 2.66 4.64 3.32 6 4 C4.62 5.5 4.62 5.5 3 7 C2.34 7 1.68 7 1 7 C1 7.66 1 8.32 1 9 C-0.96 10.39 -2.96 11.73 -5 13 C-4.67 11.02 -4.34 9.04 -4 7 C-3.34 7 -2.68 7 -2 7 C-1.34 4.69 -0.68 2.38 0 0 Z " fill="#1A925D" transform="translate(191,175)"/>
<path d="M0 0 C4.12 1.05 6.69 3.78 9.69 6.69 C8.7 7.02 7.71 7.35 6.69 7.69 C6.03 7.03 5.37 6.37 4.69 5.69 C0.69 4.71 -2.34 4.63 -6.31 5.69 C-3.09 0.92 -3.09 0.92 0 0 Z " fill="#E1F1E8" transform="translate(199.3125,146.3125)"/>
<path d="M0 0 C1.67 0.06 1.67 0.06 3.38 0.12 C3.38 0.79 3.38 1.44 3.38 2.12 C2.06 2.45 0.74 2.79 -0.62 3.12 C-0.29 4.77 0.03 6.43 0.38 8.12 C-0.28 8.12 -0.94 8.12 -1.62 8.12 C-1.62 9.12 -1.62 10.11 -1.62 11.12 C-2.28 10.46 -2.94 9.81 -3.62 9.12 C-4.62 9.62 -4.62 9.62 -5.62 10.12 C-5.82 4.07 -5.82 4.07 -5.62 2.12 C-3.62 0.12 -3.62 0.12 0 0 Z " fill="#239461" transform="translate(214.625,274.875)"/>
<path d="M0 0 C0.33 0 0.66 0 1 0 C1.33 4.29 1.66 8.58 2 13 C3.32 12.67 4.64 12.34 6 12 C6.99 12.66 7.98 13.32 9 14 C11.05 14.45 11.05 14.45 13.19 14.62 C14.45 14.75 15.7 14.87 17 15 C17 15.33 17 15.66 17 16 C12.71 16 8.42 16 4 16 C3.67 16.66 3.34 17.32 3 18 C3 17.01 3 16.02 3 15 C2.01 15 1.02 15 0 15 C0 10.05 0 5.1 0 0 Z " fill="#369B71" transform="translate(52,259)"/>
<path d="M0 0 C0.33 1.65 0.66 3.3 1 5 C-0.32 5.33 -1.64 5.66 -3 6 C-3.33 5.01 -3.66 4.02 -4 3 C-5.32 3 -6.64 3 -8 3 C-8.33 4.32 -8.66 5.64 -9 7 C-9 5.68 -9 4.36 -9 3 C-9.66 2.67 -10.32 2.34 -11 2 C-7.37 -0.33 -4.23 -0.16 0 0 Z " fill="#D0EBE0" transform="translate(238,243)"/>
<path d="M0 0 C0.33 0.66 0.66 1.32 1 2 C3.53 2.66 3.53 2.66 6 3 C3.33 5.67 0.67 8.33 -2 11 C-2.99 10.67 -3.98 10.34 -5 10 C-5 9.34 -5 8.68 -5 8 C-3.35 7.34 -1.7 6.68 0 6 C0 5.34 0 4.68 0 4 C-0.66 4 -1.32 4 -2 4 C-1.34 2.68 -0.68 1.36 0 0 Z " fill="#0F8D57" transform="translate(178,186)"/>
<path d="M0 0 C1.32 0 2.64 0 4 0 C4.33 1.32 4.66 2.64 5 4 C6.65 4 8.3 4 10 4 C10 4.99 10 5.98 10 7 C6.71 7.8 5.29 8.1 2 7 C0 4 0 4 0 0 Z " fill="#098B51" transform="translate(230,246)"/>
<path d="M0 0 C0.33 0 0.66 0 1 0 C1.33 5.94 1.66 11.88 2 18 C2.99 18 3.98 18 5 18 C5 18.66 5 19.32 5 20 C0.38 20 -4.24 20 -9 20 C-9 19.34 -9 18.68 -9 18 C-7.68 17.67 -6.36 17.34 -5 17 C-5 17.33 -5 17.66 -5 18 C-3.35 18.33 -1.7 18.66 0 19 C0 12.73 0 6.46 0 0 Z " fill="#D4F3E5" transform="translate(175,253)"/>
<path d="M0 0 C0.33 0 0.66 0 1 0 C1 3.96 1 7.92 1 12 C0.34 12 -0.32 12 -1 12 C-1 12.66 -1 13.32 -1 14 C-3.81 14.69 -3.81 14.69 -7 15 C-8.88 13.56 -8.88 13.56 -10 12 C-9.34 12 -8.68 12 -8 12 C-8 11.34 -8 10.68 -8 10 C-5 11 -5 11 -3 12 C-2.67 10.68 -2.34 9.36 -2 8 C-1.67 8 -1.34 8 -1 8 C-0.67 5.36 -0.34 2.72 0 0 Z " fill="#349B6E" transform="translate(223,248)"/>
<path d="M0 0 C1.98 0.99 1.98 0.99 4 2 C4.33 1.34 4.66 0.68 5 0 C5.66 0 6.32 0 7 0 C7 4.62 7 9.24 7 14 C6.67 14 6.34 14 6 14 C5.67 11.69 5.34 9.38 5 7 C4.01 6.67 3.02 6.34 2 6 C1.67 5.34 1.34 4.68 1 4 C1 5.98 1 7.96 1 10 C0.67 10 0.34 10 0 10 C0 6.7 0 3.4 0 0 Z " fill="#CAE8DB" transform="translate(300,250)"/>
<path d="M0 0 C-0.33 0.99 -0.66 1.98 -1 3 C-1.66 3 -2.32 3 -3 3 C-3 4.65 -3 6.3 -3 8 C-3.99 8.33 -4.98 8.66 -6 9 C-6.33 7.02 -6.66 5.04 -7 3 C-8.32 3 -9.64 3 -11 3 C-11 2.34 -11 1.68 -11 1 C-7.28 0.31 -3.79 -0.11 0 0 Z " fill="#EBF6F2" transform="translate(157,243)"/>
<path d="M0 0 C0.33 0 0.66 0 1 0 C1.22 2.12 1.43 4.25 1.62 6.38 C1.74 7.56 1.86 8.74 1.98 9.96 C1.98 10.96 1.99 11.97 2 13 C1.34 13.66 0.68 14.32 0 15 C-0.99 14.34 -1.98 13.68 -3 13 C-1.68 1.68 -1.68 1.68 0 0 Z " fill="#F3FAF9" transform="translate(283,255)"/>
<path d="M0 0 C2 2 2 2 2.05 3.91 C1.95 4.62 1.85 5.33 1.75 6.06 C1.62 7.13 1.62 7.13 1.48 8.22 C1.24 9.1 1.24 9.1 1 10 C0.01 10.5 0.01 10.5 -1 11 C-1.99 10.67 -2.98 10.34 -4 10 C-4.12 7.62 -4.12 7.62 -4 5 C-3.34 4.34 -2.68 3.68 -2 3 C-2 2.34 -2 1.68 -2 1 C-1.34 0.67 -0.68 0.34 0 0 Z " fill="#F8FAFB" transform="translate(210,245)"/>
<path d="M0 0 C9.02 -0.63 9.02 -0.63 13.12 2 C13.74 2.66 14.36 3.32 15 4 C14.67 5.32 14.34 6.64 14 8 C14 7.01 14 6.02 14 5 C12.68 4.67 11.36 4.34 10 4 C10 6.97 10 9.94 10 13 C9.67 13 9.34 13 9 13 C8.94 12.39 8.88 11.77 8.82 11.14 C8.73 10.33 8.65 9.52 8.56 8.69 C8.48 7.89 8.4 7.09 8.32 6.26 C8.05 3.84 8.05 3.84 7 1 C4.69 1 2.38 1 0 1 C0 0.67 0 0.34 0 0 Z " fill="#D0F0E2" transform="translate(320,243)"/>
<path d="M0 0 C1.32 0 2.64 0 4 0 C4.29 6.05 4.29 6.05 4 8 C0.56 10.29 -0.97 10.26 -5 10 C-6 9 -6 9 -6.06 6.44 C-6.04 5.63 -6.02 4.83 -6 4 C-5.67 5.32 -5.34 6.64 -5 8 C-4.67 7.01 -4.34 6.02 -4 5 C-2.68 5.33 -1.36 5.66 0 6 C0 6.66 0 7.32 0 8 C2.36 5.64 2.49 4.22 3 1 C2.01 0.67 1.02 0.34 0 0 Z " fill="#0A804B" transform="translate(325,259)"/>
<path d="M0 0 C0.33 0 0.66 0 1 0 C1.03 2.75 1.05 5.5 1.06 8.25 C1.07 9.03 1.08 9.8 1.09 10.61 C1.09 11.36 1.09 12.11 1.1 12.89 C1.1 13.58 1.11 14.27 1.11 14.99 C0.99 17.1 0.58 18.97 0 21 C-0.99 20.67 -1.98 20.34 -3 20 C-2.07 13.32 -1.03 6.66 0 0 Z " fill="#F5FDFB" transform="translate(130,251)"/>
<path d="M0 0 C2.88 0.31 2.88 0.31 6 1 C8.15 4.23 8.2 5.28 8 9 C6.68 8.67 5.36 8.34 4 8 C4 7.34 4 6.68 4 6 C3.34 6 2.68 6 2 6 C1.34 4.02 0.68 2.04 0 0 Z " fill="#E1F4F0" transform="translate(297,244)"/>
<path d="M0 0 C1.32 0 2.64 0 4 0 C4 0.66 4 1.32 4 2 C4.99 2 5.98 2 7 2 C7 1.34 7 0.68 7 0 C8.65 0.33 10.3 0.66 12 1 C11.42 3.39 10.78 5.67 10 8 C9.34 8 8.68 8 8 8 C7.79 7.4 7.59 6.8 7.38 6.19 C5.49 3.19 3.19 2.39 0 1 C0 0.67 0 0.34 0 0 Z " fill="#1A915D" transform="translate(297,242)"/>
<path d="M0 0 C0.99 0.33 1.98 0.66 3 1 C5.33 1.67 7.67 2.34 10 3 C10 3.33 10 3.66 10 4 C8.35 4 6.7 4 5 4 C5 4.66 5 5.32 5 6 C3.35 6.66 1.7 7.32 0 8 C0.33 7.01 0.66 6.02 1 5 C0.34 5 -0.32 5 -1 5 C-1.33 6.65 -1.66 8.3 -2 10 C-2.99 8.68 -3.98 7.36 -5 6 C-4.34 5.67 -3.68 5.34 -3 5 C-3 4.34 -3 3.68 -3 3 C-2.34 3 -1.68 3 -1 3 C-0.67 2.01 -0.34 1.02 0 0 Z " fill="#1E9462" transform="translate(338,240)"/>
<path d="M0 0 C1.32 0.33 2.64 0.66 4 1 C4 7.93 4 14.86 4 22 C3.67 21.01 3.34 20.02 3 19 C2.01 19 1.02 19 0 19 C0 19.66 0 20.32 0 21 C-0.66 21 -1.32 21 -2 21 C-1.67 20.01 -1.34 19.02 -1 18 C-0.01 17.67 0.98 17.34 2 17 C2.33 12.38 2.66 7.76 3 3 C2.01 3 1.02 3 0 3 C0 2.01 0 1.02 0 0 Z " fill="#077F49" transform="translate(121,247)"/>
<path d="M0 0 C0.33 0 0.66 0 1 0 C1.33 3.63 1.66 7.26 2 11 C2.66 11 3.32 11 4 11 C4 12.65 4 14.3 4 16 C1 15 1 15 -0.75 12.25 C-2.1 8.73 -2.11 7.51 -1 4 C-0.81 3.24 -0.63 2.47 -0.44 1.69 C-0.29 1.13 -0.15 0.57 0 0 Z " fill="#E0F3EE" transform="translate(372,256)"/>
<path d="M0 0 C2.44 0.38 2.44 0.38 5 1 C6.3 3.61 6.11 5.53 6.1 8.45 C6.09 9.52 6.09 10.6 6.09 11.71 C6.08 12.83 6.07 13.96 6.06 15.12 C6.06 16.26 6.05 17.4 6.05 18.57 C6.04 21.38 6.02 24.19 6 27 C5.01 26.67 4.02 26.34 3 26 C3.66 26 4.32 26 5 26 C4.67 18.74 4.34 11.48 4 4 C2.68 3.34 1.36 2.68 0 2 C0 1.34 0 0.68 0 0 Z " fill="#A6D8C2" transform="translate(120,244)"/>
<path d="M0 0 C-0.33 0.99 -0.66 1.98 -1 3 C-9.57 3.14 -9.57 3.14 -13 2 C-13 1.34 -13 0.68 -13 0 C-7.86 -1.85 -5.04 -2.21 0 0 Z " fill="#098D50" transform="translate(229,267)"/>
<path d="M0 0 C7.1 -0.68 7.1 -0.68 10 1.5 C10.5 2.24 10.5 2.24 11 3 C8.66 4.45 7.42 5.04 4.64 4.76 C3.46 4.44 3.46 4.44 2.25 4.12 C1.45 3.92 0.65 3.72 -0.17 3.51 C-0.78 3.34 -1.38 3.17 -2 3 C-1.34 2.01 -0.68 1.02 0 0 Z " fill="#F2F8F7" transform="translate(257,243)"/>
<path d="M0 0 C0.99 0 1.98 0 3 0 C3.05 0.85 3.1 1.71 3.15 2.59 C3.22 3.69 3.3 4.8 3.38 5.94 C3.44 7.04 3.51 8.14 3.59 9.28 C3.72 10.18 3.86 11.07 4 12 C4.66 12.33 5.32 12.66 6 13 C5.67 13.66 5.34 14.32 5 15 C4.34 15 3.68 15 3 15 C3.33 15.99 3.66 16.98 4 18 C3.34 18 2.68 18 2 18 C1.67 18.66 1.34 19.32 1 20 C0.67 17.03 0.34 14.06 0 11 C0.33 11 0.66 11 1 11 C1.33 7.7 1.66 4.4 2 1 C1.34 0.67 0.68 0.34 0 0 Z " fill="#2C9D6C" transform="translate(77,228)"/>
<path d="M0 0 C1.9 1.9 2.94 3.33 3.2 6.05 C3.19 8.03 3.1 10.02 3 12 C1.68 11.67 0.36 11.34 -1 11 C-1.03 9.54 -1.05 8.08 -1.06 6.62 C-1.07 5.81 -1.09 5 -1.1 4.16 C-1 2 -1 2 0 0 Z " fill="#F7F8FB" transform="translate(56,232)"/>
<path d="M0 0 C0.99 0.33 1.98 0.66 3 1 C4.23 6.42 4.23 6.42 3.06 9.38 C2.71 9.91 2.36 10.45 2 11 C1.01 10.67 0.02 10.34 -1 10 C-1 9.01 -1 8.02 -1 7 C-0.34 7 0.32 7 1 7 C1 6.01 1 5.02 1 4 C0.34 4 -0.32 4 -1 4 C-1.33 3.01 -1.66 2.02 -2 1 C-1.34 0.67 -0.68 0.34 0 0 Z " fill="#18905C" transform="translate(226,277)"/>
<path d="M0 0 C2 1 2 1 2.62 2.77 C3.02 5.14 3.1 7.34 3.06 9.75 C3.05 10.55 3.04 11.35 3.04 12.17 C3.02 13.08 3.02 13.08 3 14 C2.34 14 1.68 14 1 14 C0.67 14.66 0.34 15.32 0 16 C0 10.72 0 5.44 0 0 Z " fill="#038A50" transform="translate(252,251)"/>
<path d="M0 0 C1.26 2.52 0.92 3.85 0.56 6.62 C0.41 7.85 0.41 7.85 0.25 9.1 C0.17 9.73 0.09 10.35 0 11 C1.32 11.33 2.64 11.66 4 12 C3.67 12.99 3.34 13.98 3 15 C3.66 15.33 4.32 15.66 5 16 C4.67 16.66 4.34 17.32 4 18 C-1.93 12.22 -1.93 12.22 -2.19 7.62 C-2.02 4.33 -1.74 2.72 0 0 Z " fill="#C5EBDD" transform="translate(55,232)"/>
<path d="M0 0 C0.33 0.66 0.66 1.32 1 2 C-1.93 1.95 -1.93 1.95 -4.86 1.9 C-6.98 1.92 -6.98 1.92 -8.88 2.53 C-11.76 3.17 -14.31 2.85 -17.25 2.56 C-18.33 2.46 -19.41 2.36 -20.52 2.25 C-21.34 2.17 -22.16 2.09 -23 2 C-23 1.67 -23 1.34 -23 1 C-7.4 -1.96 -7.4 -1.96 0 0 Z " fill="#45A37A" transform="translate(338,272)"/>
<path d="M0 0 C0.12 0.8 0.25 1.61 0.38 2.44 C0.58 3.28 0.79 4.13 1 5 C1.66 5.33 2.32 5.66 3 6 C2.67 6.99 2.34 7.98 2 9 C0.71 8.04 -0.58 7.08 -1.88 6.12 C-2.59 5.59 -3.31 5.06 -4.05 4.51 C-6 3 -6 3 -8 1 C-5.29 -0.35 -2.99 -0.07 0 0 Z " fill="#1A905C" transform="translate(221,217)"/>
<path d="M0 0 C3.3 0.33 6.6 0.66 10 1 C9.67 1.66 9.34 2.32 9 3 C6.03 2.5 6.03 2.5 3 2 C3 2.99 3 3.98 3 5 C2.34 5 1.68 5 1 5 C1.33 8.3 1.66 11.6 2 15 C1.34 15 0.68 15 0 15 C0 10.05 0 5.1 0 0 Z " fill="#098349" transform="translate(96,273)"/>
<path d="M0 0 C0.33 0 0.66 0 1 0 C1.33 4.62 1.66 9.24 2 14 C2.66 14 3.32 14 4 14 C4.33 15.65 4.66 17.3 5 19 C6.32 19.33 7.64 19.66 9 20 C6.24 20.23 4.39 20.17 1.84 19.03 C-1.08 15.82 -0.43 12.49 -0.25 8.31 C-0.23 7.52 -0.21 6.72 -0.2 5.9 C-0.15 3.93 -0.08 1.97 0 0 Z " fill="#4EA27D" transform="translate(251,251)"/>
<path d="M0 0 C3.8 0.54 5.47 2.2 8 5 C5 7 5 7 1 7 C1 6.34 1 5.68 1 5 C1.66 5 2.32 5 3 5 C3 4.34 3 3.68 3 3 C1.35 3 -0.3 3 -2 3 C-1.34 2.01 -0.68 1.02 0 0 Z " fill="#E0F2ED" transform="translate(198,177)"/>
<path d="M0 0 C5.88 3.62 5.88 3.62 7 7 C4.36 7 1.72 7 -1 7 C-1.62 5.19 -1.62 5.19 -2 3 C-1.34 2.01 -0.68 1.02 0 0 Z " fill="#E8F4F0" transform="translate(218,161)"/>
<path d="M0 0 C0 0.33 0 0.66 0 1 C-2.97 1 -5.94 1 -9 1 C-9.33 1.99 -9.66 2.98 -10 4 C-9.01 4.66 -8.02 5.32 -7 6 C-8.88 7.06 -8.88 7.06 -11 8 C-11.66 7.67 -12.32 7.34 -13 7 C-13 6.01 -13 5.02 -13 4 C-13.66 3.67 -14.32 3.34 -15 3 C-10.28 -0.78 -5.74 -0.3 0 0 Z " fill="#CBECDF" transform="translate(220,269)"/>
<path d="M0 0 C1.56 1.75 1.56 1.75 3 4 C2.67 5.32 2.34 6.64 2 8 C4.97 8 7.94 8 11 8 C11 8.33 11 8.66 11 9 C4.31 9.48 0.22 9.4 -5 5 C-4.67 4.34 -4.34 3.68 -4 3 C-3.01 3 -2.02 3 -1 3 C-0.67 2.01 -0.34 1.02 0 0 Z " fill="#A9D6C5" transform="translate(285,265)"/>
<path d="M0 0 C-3.23 2.15 -4.28 2.2 -8 2 C-8 2.66 -8 3.32 -8 4 C-9.98 4 -11.96 4 -14 4 C-14 3.01 -14 2.02 -14 1 C-12.04 0.64 -10.08 0.29 -8.12 -0.06 C-7.03 -0.26 -5.94 -0.46 -4.82 -0.66 C-2 -1 -2 -1 0 0 Z " fill="#3C9A71" transform="translate(224,265)"/>
<path d="M0 0 C2.38 0.69 2.38 0.69 5 2 C5.66 3.65 6.32 5.3 7 7 C1.39 7 -4.22 7 -10 7 C-10 6.67 -10 6.34 -10 6 C-5.38 6 -0.76 6 4 6 C4 5.01 4 4.02 4 3 C2.68 3 1.36 3 0 3 C0 2.01 0 1.02 0 0 Z " fill="#D0F1E6" transform="translate(218,192)"/>
<path d="M0 0 C0.66 0 1.32 0 2 0 C1.67 1.65 1.34 3.3 1 5 C-2.63 5.33 -6.26 5.66 -10 6 C-9.01 5.34 -8.02 4.68 -7 4 C-7.66 3.34 -8.32 2.68 -9 2 C-6.95 1.77 -4.9 1.54 -2.85 1.32 C-0.99 1.18 -0.99 1.18 0 0 Z " fill="#BADECF" transform="translate(226,288)"/>
<path d="M0 0 C2.64 0.33 5.28 0.66 8 1 C7.67 3.31 7.34 5.62 7 8 C3.7 7.34 0.4 6.68 -3 6 C-3 5.67 -3 5.34 -3 5 C-0.69 5 1.62 5 4 5 C4 4.01 4 3.02 4 2 C2.68 1.34 1.36 0.68 0 0 Z " fill="#DBF3EB" transform="translate(221,270)"/>
<path d="M0 0 C1.32 0.66 2.64 1.32 4 2 C4 2.66 4 3.32 4 4 C5.65 4 7.3 4 9 4 C8.67 4.66 8.34 5.32 8 6 C4.37 6 0.74 6 -3 6 C-3 5.34 -3 4.68 -3 4 C-2.01 3.67 -1.02 3.34 0 3 C0 2.01 0 1.02 0 0 Z " fill="#C6E5D8" transform="translate(251,268)"/>
<path d="M0 0 C0 0.33 0 0.66 0 1 C-1.7 1.22 -1.7 1.22 -3.44 1.44 C-6.81 1.61 -6.81 1.61 -8 3 C-5.03 3.5 -5.03 3.5 -2 4 C-2 4.33 -2 4.66 -2 5 C-4.64 5.33 -7.28 5.66 -10 6 C-10 6.66 -10 7.32 -10 8 C-10.66 7.67 -11.32 7.34 -12 7 C-12.33 6.01 -12.66 5.02 -13 4 C-8.62 -0.38 -5.89 -0.4 0 0 Z " fill="#ABD7C4" transform="translate(264,242)"/>
<path d="M0 0 C0.33 0.66 0.66 1.32 1 2 C0.3 2.03 -0.4 2.05 -1.12 2.08 C-7.76 2.47 -12.26 3.64 -18 7 C-18.33 6.01 -18.66 5.02 -19 4 C-17.35 3.67 -15.7 3.34 -14 3 C-14 2.34 -14 1.68 -14 1 C-9.38 0.67 -4.76 0.34 0 0 Z " fill="#208C5C" transform="translate(72,226)"/>
<path d="M0 0 C0 1.67 0 3.33 0 5 C-0.66 5 -1.32 5 -2 5 C-2.33 6.32 -2.66 7.64 -3 9 C-4.98 9 -6.96 9 -9 9 C-6.32 5.43 -3.57 2.68 0 0 Z " fill="#DAF0E5" transform="translate(183,159)"/>
<path d="M0 0 C0 0.66 0 1.32 0 2 C-0.99 2 -1.98 2 -3 2 C-3 2.66 -3 3.32 -3 4 C-6.96 4 -10.92 4 -15 4 C-15 3.01 -15 2.02 -15 1 C-13.84 1.02 -13.84 1.02 -12.66 1.04 C-11.16 1.05 -11.16 1.05 -9.62 1.06 C-8.13 1.08 -8.13 1.08 -6.6 1.1 C-4.04 1 -2.49 0 0 0 Z " fill="#38986F" transform="translate(391,271)"/>
<path d="M0 0 C0.66 0.66 1.32 1.32 2 2 C3.99 2.4 5.99 2.74 8 3 C8 2.34 8 1.68 8 1 C9.65 1.33 11.3 1.66 13 2 C13 2.66 13 3.32 13 4 C7.39 4 1.78 4 -4 4 C-4 3.34 -4 2.68 -4 2 C-2.68 2 -1.36 2 0 2 C0 1.34 0 0.68 0 0 Z " fill="#D4F2E8" transform="translate(347,269)"/>
<path d="M0 0 C2.44 0.81 2.44 0.81 5 2 C5.33 2.99 5.66 3.98 6 5 C3.03 4.5 3.03 4.5 0 4 C0 2.68 0 1.36 0 0 Z M-3 4 C-2.01 4.33 -1.02 4.66 0 5 C1.19 7.56 1.19 7.56 2 10 C-0.31 8.68 -2.62 7.36 -5 6 C-4.34 5.34 -3.68 4.68 -3 4 Z " fill="#CFECE1" transform="translate(72,248)"/>
<path d="M0 0 C0 0.33 0 0.66 0 1 C-1.65 1 -3.3 1 -5 1 C-4.67 1.99 -4.34 2.98 -4 4 C-4.62 4.29 -5.24 4.58 -5.88 4.88 C-8.13 5.94 -8.13 5.94 -10 8 C-10 7.34 -10 6.68 -10 6 C-10.66 6 -11.32 6 -12 6 C-12 4.35 -12 2.7 -12 1 C-10.02 1.99 -10.02 1.99 -8 3 C-8 2.34 -8 1.68 -8 1 C-5.29 -0.35 -2.99 -0.07 0 0 Z " fill="#B5E1D0" transform="translate(142,242)"/>
<path d="M0 0 C-0.66 1.32 -1.32 2.64 -2 4 C-4.31 4 -6.62 4 -9 4 C-9 3.01 -9 2.02 -9 1 C-6.04 -0.48 -3.26 -0.06 0 0 Z " fill="#DDF0EA" transform="translate(189,242)"/>
<path d="M0 0 C0.33 0 0.66 0 1 0 C1.33 2.31 1.66 4.62 2 7 C4.97 7.5 4.97 7.5 8 8 C8 8.33 8 8.66 8 9 C6.52 9.03 5.04 9.05 3.56 9.06 C2.33 9.08 2.33 9.08 1.07 9.1 C-1 9 -1 9 -2 8 C-2.04 6 -2.04 4 -2 2 C-1.34 2 -0.68 2 0 2 C0 1.34 0 0.68 0 0 Z " fill="#FCF7FC" transform="translate(316,263)"/>
<path d="M0 0 C0.66 0 1.32 0 2 0 C2.06 0.63 2.12 1.25 2.18 1.9 C2.27 2.72 2.35 3.53 2.44 4.38 C2.56 5.59 2.56 5.59 2.68 6.84 C2.89 9.04 2.89 9.04 4 11 C3.34 11 2.68 11 2 11 C1.67 11.99 1.34 12.98 1 14 C0.67 14 0.34 14 0 14 C0 9.38 0 4.76 0 0 Z " fill="#EDF4F2" transform="translate(53,259)"/>
<path d="M0 0 C3.56 0.19 3.56 0.19 5.56 2.19 C5.19 4.31 5.19 4.31 4.56 6.19 C4.56 5.2 4.56 4.21 4.56 3.19 C2.25 3.52 -0.06 3.85 -2.44 4.19 C-3.1 3.2 -3.76 2.21 -4.44 1.19 C-3.44 0.19 -3.44 0.19 0 0 Z " fill="#239462" transform="translate(323.4375,244.8125)"/>
<path d="M0 0 C0 0.33 0 0.66 0 1 C-1.7 1.22 -1.7 1.22 -3.44 1.44 C-6.81 1.61 -6.81 1.61 -8 3 C-6.35 3.33 -4.7 3.66 -3 4 C-5.63 5.41 -8.05 6.51 -11 7 C-11.66 6.67 -12.32 6.34 -13 6 C-13 4 -13 4 -11 1.88 C-6.99 -0.63 -4.66 -0.32 0 0 Z " fill="#A9D9C8" transform="translate(108,242)"/>
<path d="M0 0 C0.66 0 1.32 0 2 0 C1.69 1.88 1.69 1.88 1 4 C0.01 4.66 -0.98 5.32 -2 6 C-2 5.34 -2 4.68 -2 4 C-4.64 4 -7.28 4 -10 4 C-10.33 4.99 -10.66 5.98 -11 7 C-11 5.68 -11 4.36 -11 3 C-5.56 2.5 -5.56 2.5 0 2 C0 1.34 0 0.68 0 0 Z " fill="#339D6F" transform="translate(402,270)"/>
<path d="M0 0 C1.94 0.75 1.94 0.75 4 2 C4.75 4.12 4.75 4.12 5 6 C3.02 6 1.04 6 -1 6 C-1.04 4.33 -1.04 2.67 -1 1 C-0.67 0.67 -0.34 0.34 0 0 Z " fill="#E4F4EF" transform="translate(314,247)"/>
<path d="M0 0 C0.66 0.33 1.32 0.66 2 1 C0.62 3.5 0.62 3.5 -1 6 C-1.66 6 -2.32 6 -3 6 C-3.33 6.66 -3.66 7.32 -4 8 C-5.98 8.73 -7.98 9.4 -10 10 C-8.33 8.33 -6.67 6.67 -5 5 C-4.16 4.1 -4.16 4.1 -3.31 3.19 C-2 2 -2 2 0 2 C0 1.34 0 0.68 0 0 Z " fill="#DCF2EB" transform="translate(192,182)"/>
<path d="M0 0 C2.97 0.5 2.97 0.5 6 1 C6 1.66 6 2.32 6 3 C6.66 3.33 7.32 3.66 8 4 C7.01 5.49 7.01 5.49 6 7 C2.88 7.19 2.88 7.19 0 7 C0 6.67 0 6.34 0 6 C1.65 6 3.3 6 5 6 C5 5.34 5 4.68 5 4 C4.36 3.71 3.72 3.42 3.06 3.12 C1 2 1 2 0 0 Z " fill="#1C905E" transform="translate(290,264)"/>
<path d="M0 0 C0.66 0.66 1.32 1.32 2 2 C2.66 1.67 3.32 1.34 4 1 C4.33 3.31 4.66 5.62 5 8 C3.02 8 1.04 8 -1 8 C-0.34 7.67 0.32 7.34 1 7 C0.67 4.69 0.34 2.38 0 0 Z " fill="#098B4E" transform="translate(72,234)"/>
<path d="M0 0 C0 1.32 0 2.64 0 4 C-1.32 4 -2.64 4 -4 4 C-4 3.34 -4 2.68 -4 2 C-6.31 2 -8.62 2 -11 2 C-11 2.66 -11 3.32 -11 4 C-11.66 4 -12.32 4 -13 4 C-12.67 3.01 -12.34 2.02 -12 1 C-10.56 0.83 -9.13 0.67 -7.69 0.5 C-6.89 0.41 -6.09 0.31 -5.26 0.22 C-3 0 -3 0 0 0 Z " fill="#BBE1D0" transform="translate(397,227)"/>
<path d="M0 0 C0.66 0 1.32 0 2 0 C3.07 1.96 4.07 3.97 5 6 C4.67 6.66 4.34 7.32 4 8 C2.68 7.67 1.36 7.34 0 7 C0 4.69 0 2.38 0 0 Z " fill="#FAF9FB" transform="translate(204,280)"/>
<path d="M0 0 C0.99 0.5 0.99 0.5 2 1 C2 1.66 2 2.32 2 3 C4.97 3 7.94 3 11 3 C11 2.34 11 1.68 11 1 C11.66 1.33 12.32 1.66 13 2 C13.62 4.56 13.62 4.56 14 7 C13.67 6.34 13.34 5.68 13 5 C9.95 4.53 9.95 4.53 6.44 4.38 C5.24 4.3 4.04 4.23 2.81 4.15 C1.88 4.1 0.95 4.05 0 4 C0 2.68 0 1.36 0 0 Z " fill="#AFDDCA" transform="translate(378,266)"/>
<path d="M0 0 C1 2 2 4 3 6 C2.01 6 1.02 6 0 6 C0.66 6.33 1.32 6.66 2 7 C1.67 7.99 1.34 8.98 1 10 C0.34 10 -0.32 10 -1 10 C-1.66 9.34 -2.32 8.68 -3 8 C-3 7.01 -3 6.02 -3 5 C-2.34 4.67 -1.68 4.34 -1 4 C-0.35 1.98 -0.35 1.98 0 0 Z " fill="#0F9158" transform="translate(277,262)"/>
<path d="M0 0 C1.32 0 2.64 0 4 0 C4.33 1.32 4.66 2.64 5 4 C2 6 2 6 -1 6 C-0.67 4.02 -0.34 2.04 0 0 Z " fill="#EBF6F2" transform="translate(205,266)"/>
<path d="M0 0 C1.32 1.32 2.64 2.64 4 4 C3.2 4.29 2.39 4.58 1.56 4.88 C-1.13 5.73 -1.13 5.73 -2 8 C-2.66 7.67 -3.32 7.34 -4 7 C-4 5 -4 5 -2.56 3.5 C-2.05 3 -1.53 2.51 -1 2 C-0.67 1.34 -0.34 0.68 0 0 Z " fill="#299365" transform="translate(206,260)"/>
<path d="M0 0 C1.98 0 3.96 0 6 0 C6 0.66 6 1.32 6 2 C6.99 2 7.98 2 9 2 C9.33 2.99 9.66 3.98 10 5 C10.66 5.66 11.32 6.32 12 7 C11.01 7 10.02 7 9 7 C8.67 6.01 8.34 5.02 8 4 C5.68 3.3 3.34 2.63 1 2 C0.67 1.34 0.34 0.68 0 0 Z " fill="#2B9568" transform="translate(69,246)"/>
<path d="M0 0 C0 1.65 0 3.3 0 5 C0.66 5 1.32 5 2 5 C1.67 5.66 1.34 6.32 1 7 C-1.94 5.69 -1.94 5.69 -5 4 C-5.33 3.01 -5.66 2.02 -6 1 C-4 0 -4 0 0 0 Z " fill="#EDF5F5" transform="translate(130,243)"/>
<path d="M0 0 C2.62 1.05 3.79 1.65 5.25 4.12 C5.5 4.74 5.75 5.36 6 6 C4.02 6 2.04 6 0 6 C-1.12 2.25 -1.12 2.25 0 0 Z " fill="#21915C" transform="translate(99,265)"/>
<path d="M0 0 C0.66 0 1.32 0 2 0 C2 0.66 2 1.32 2 2 C2.66 2.33 3.32 2.66 4 3 C3.34 3 2.68 3 2 3 C2 5.97 2 8.94 2 12 C1.34 11.67 0.68 11.34 0 11 C0 7.37 0 3.74 0 0 Z " fill="#008D4B" transform="translate(178,253)"/>
<path d="M0 0 C2 0.31 2 0.31 4 1 C4.33 1.66 4.66 2.32 5 3 C5.99 3.66 6.98 4.32 8 5 C5.69 5.66 3.38 6.32 1 7 C1 5.68 1 4.36 1 3 C0.34 2.34 -0.32 1.68 -1 1 C-0.67 0.67 -0.34 0.34 0 0 Z " fill="#269061" transform="translate(135,246)"/>
<path d="M0 0 C0.66 0 1.32 0 2 0 C2 0.66 2 1.32 2 2 C2.66 2.33 3.32 2.66 4 3 C3.67 3.99 3.34 4.98 3 6 C1.35 5.67 -0.3 5.34 -2 5 C-2 2 -2 2 0 0 Z " fill="#F7FBFB" transform="translate(60,243)"/>
<path d="M0 0 C2.64 0 5.28 0 8 0 C6.42 2.15 4.89 4.11 3 6 C3 5.34 3 4.68 3 4 C1.68 3.67 0.36 3.34 -1 3 C-0.67 2.01 -0.34 1.02 0 0 Z " fill="#B5DECC" transform="translate(241,228)"/>
<path d="M0 0 C0.99 0.33 1.98 0.66 3 1 C3 1.66 3 2.32 3 3 C-1.12 4.63 -3.71 5.26 -8 4 C-8 3.67 -8 3.34 -8 3 C-7.05 2.69 -6.1 2.38 -5.12 2.06 C-2.14 1.13 -2.14 1.13 0 0 Z " fill="#D6F1EA" transform="translate(263,268)"/>
<path d="M0 0 C2.38 -0.29 2.38 -0.29 5.12 -0.19 C6.04 -0.16 6.95 -0.13 7.88 -0.11 C8.58 -0.07 9.28 -0.04 10 0 C9.67 0.99 9.34 1.98 9 3 C5.37 3 1.74 3 -2 3 C-1.34 2.01 -0.68 1.02 0 0 Z " fill="#C5E6D9" transform="translate(63,271)"/>
<path d="M0 0 C0.33 0.66 0.66 1.32 1 2 C-0.13 5.4 -0.97 6.22 -4 8 C-4.99 7.67 -5.98 7.34 -7 7 C-2.25 1.12 -2.25 1.12 0 0 Z " fill="#CDEADD" transform="translate(187,217)"/>
<path d="M0 0 C0 0.99 0 1.98 0 3 C0.66 3 1.32 3 2 3 C1.67 3.99 1.34 4.98 1 6 C0.26 5.38 -0.49 4.76 -1.25 4.12 C-3.49 2.4 -5.44 1.14 -8 0 C-4.71 -0.8 -3.29 -1.1 0 0 Z " fill="#30996B" transform="translate(206,146)"/>
<path d="M0 0 C3.3 0.33 6.6 0.66 10 1 C10 1.66 10 2.32 10 3 C6.7 3 3.4 3 0 3 C0 2.01 0 1.02 0 0 Z " fill="#DEF5F0" transform="translate(287,270)"/>
<path d="M0 0 C0.66 0 1.32 0 2 0 C3.1 4.41 3.08 8.48 3 13 C2.67 12.34 2.34 11.68 2 11 C1.34 10.67 0.68 10.34 0 10 C0.66 10 1.32 10 2 10 C2 9.01 2 8.02 2 7 C0.35 7 -1.3 7 -3 7 C-2.01 6.34 -1.02 5.68 0 5 C0.25 2.42 0.25 2.42 0 0 Z " fill="#2B9565" transform="translate(238,243)"/>
<path d="M0 0 C1.65 0 3.3 0 5 0 C3.75 3.74 2.37 4.19 -1 6 C-1.66 5.34 -2.32 4.68 -3 4 C-2.34 4 -1.68 4 -1 4 C-0.67 2.68 -0.34 1.36 0 0 Z " fill="#198B58" transform="translate(180,218)"/>
<path d="M0 0 C3.3 0.33 6.6 0.66 10 1 C10 1.33 10 1.66 10 2 C4.64 3.13 -0.55 3.1 -6 3 C-6 2.67 -6 2.34 -6 2 C-4.02 2 -2.04 2 0 2 C0 1.34 0 0.68 0 0 Z " fill="#E3F5EF" transform="translate(215,290)"/>
<path d="M0 0 C0.62 1.88 0.62 1.88 1 4 C-1.36 6.36 -2.78 6.49 -6 7 C-6 6.01 -6 5.02 -6 4 C-3.56 2.38 -3.56 2.38 -1 1 C-0.67 0.67 -0.34 0.34 0 0 Z " fill="#2C9467" transform="translate(79,268)"/>
<path d="M0 0 C0.33 0 0.66 0 1 0 C1.25 1.91 1.47 3.83 1.69 5.75 C1.82 6.82 1.94 7.88 2.07 8.98 C1.99 12.41 1.31 13.55 -1 16 C-1.66 15.34 -2.32 14.68 -3 14 C-2.34 14 -1.68 14 -1 14 C-0.67 9.38 -0.34 4.76 0 0 Z " fill="#209262" transform="translate(272,253)"/>
<path d="M0 0 C2.76 2.76 2.58 5.21 3 9 C2.01 9.33 1.02 9.66 0 10 C0.02 9.26 0.04 8.51 0.06 7.75 C0.1 5.06 0.1 5.06 -0.56 2.75 C-0.71 2.17 -0.85 1.6 -1 1 C-0.67 0.67 -0.34 0.34 0 0 Z " fill="#F9FDFE" transform="translate(112,255)"/>
<path d="M0 0 C0.66 0.99 1.32 1.98 2 3 C1.01 3.33 0.02 3.66 -1 4 C-1 6.64 -1 9.28 -1 12 C-0.34 12 0.32 12 1 12 C0.67 12.99 0.34 13.98 0 15 C-2 13 -2 13 -2.27 10.72 C-2.26 9.84 -2.26 8.97 -2.25 8.06 C-2.26 7.19 -2.26 6.31 -2.27 5.41 C-2 3 -2 3 0 0 Z " fill="#CBEFE2" transform="translate(207,246)"/>
<path d="M0 0 C0 1.32 0 2.64 0 4 C-1.65 4.33 -3.3 4.66 -5 5 C-5.33 3.68 -5.66 2.36 -6 1 C-3 0 -3 0 0 0 Z " fill="#F7F9FA" transform="translate(72,248)"/>
<path d="M0 0 C-2.67 1.33 -5.33 2.67 -8 4 C-8 3.34 -8 2.68 -8 2 C-8.99 1.67 -9.98 1.34 -11 1 C-6.82 -1.79 -4.85 -0.8 0 0 Z " fill="#CEE9DE" transform="translate(386,244)"/>
<path d="M0 0 C0.99 0 1.98 0 3 0 C2.34 4.95 1.68 9.9 1 15 C0.67 15 0.34 15 0 15 C0 10.05 0 5.1 0 0 Z " fill="#49A27B" transform="translate(369,249)"/>
<path d="M0 0 C2.64 0 5.28 0 8 0 C8.33 2.31 8.66 4.62 9 7 C8.67 6.01 8.34 5.02 8 4 C6.17 2.87 6.17 2.87 4 2 C2.67 1.33 1.33 0.67 0 0 Z " fill="#288D5F" transform="translate(256,247)"/>
<path d="M0 0 C1.95 -0.29 1.95 -0.29 4.12 -0.19 C5.4 -0.13 6.68 -0.06 8 0 C7.01 0.33 6.02 0.66 5 1 C5 1.66 5 2.32 5 3 C2.69 3 0.38 3 -2 3 C-1.34 2.01 -0.68 1.02 0 0 Z " fill="#F6F8FA" transform="translate(101,243)"/>
<path d="M0 0 C1.08 0.37 1.08 0.37 2.19 0.75 C1.59 1.04 0.99 1.33 0.38 1.62 C-2.01 2.8 -2.01 2.8 -4.81 4.75 C-5.8 4.42 -6.79 4.09 -7.81 3.75 C-3.5 -0.31 -3.5 -0.31 0 0 Z " fill="#CAEBE0" transform="translate(200.8125,208.25)"/>
<path d="M0 0 C0.66 0.33 1.32 0.66 2 1 C1.67 2.98 1.34 4.96 1 7 C0.01 7 -0.98 7 -2 7 C-2 5.35 -2 3.7 -2 2 C-1.34 2 -0.68 2 0 2 C0 1.34 0 0.68 0 0 Z " fill="#FAFBFB" transform="translate(233,278)"/>
<path d="M0 0 C2.48 0.5 2.48 0.5 5 1 C5 2.65 5 4.3 5 6 C3.68 5.67 2.36 5.34 1 5 C0.67 3.35 0.34 1.7 0 0 Z " fill="#FAFBFC" transform="translate(300,247)"/>
<path d="M0 0 C0.43 0.96 0.43 0.96 0.88 1.94 C1.83 4.15 1.83 4.15 4 5 C1.69 5 -0.62 5 -3 5 C-3 4.01 -3 3.02 -3 2 C-2.01 1.34 -1.02 0.68 0 0 Z " fill="#EAF3F0" transform="translate(179,224)"/>
<path d="M0 0 C0.99 0.33 1.98 0.66 3 1 C3 1.66 3 2.32 3 3 C5.64 3.33 8.28 3.66 11 4 C11 4.33 11 4.66 11 5 C8.03 5 5.06 5 2 5 C1.34 3.35 0.68 1.7 0 0 Z " fill="#1E895C" transform="translate(378,264)"/>
<path d="M0 0 C0.33 0.66 0.66 1.32 1 2 C3.64 2 6.28 2 9 2 C8.67 2.66 8.34 3.32 8 4 C6.54 4.05 5.08 4.09 3.62 4.12 C2.81 4.15 2 4.17 1.16 4.2 C-1 4 -1 4 -3 2 C-2.01 1.34 -1.02 0.68 0 0 Z " fill="#A2D3C0" transform="translate(179,244)"/>
<path d="M0 0 C2.64 0 5.28 0 8 0 C6.03 1.97 4.46 2.77 2 4 C1.34 4.66 0.68 5.32 0 6 C0 4.02 0 2.04 0 0 Z " fill="#248E63" transform="translate(206,242)"/>
<path d="M0 0 C0.66 0 1.32 0 2 0 C2.33 1.32 2.66 2.64 3 4 C2.01 4.5 2.01 4.5 1 5 C0.67 5.99 0.34 6.98 0 8 C-0.66 7.67 -1.32 7.34 -2 7 C-1.12 1.12 -1.12 1.12 0 0 Z " fill="#2F966B" transform="translate(61,232)"/>
<path d="M0 0 C2.97 1.98 2.97 1.98 6 4 C5.01 4.66 4.02 5.32 3 6 C2.01 5.67 1.02 5.34 0 5 C0.33 4.34 0.66 3.68 1 3 C0.34 2.67 -0.32 2.34 -1 2 C-0.67 1.34 -0.34 0.68 0 0 Z " fill="#D8EFE5" transform="translate(214,219)"/>
<path d="M0 0 C1.62 -0.05 3.25 -0.09 4.88 -0.12 C5.78 -0.15 6.68 -0.17 7.62 -0.2 C10 0 10 0 12 2 C11.01 2 10.02 2 9 2 C8.67 2.66 8.34 3.32 8 4 C7.67 3.01 7.34 2.02 7 1 C4.69 1 2.38 1 0 1 C0 0.67 0 0.34 0 0 Z " fill="#E9FAF5" transform="translate(320,243)"/>
<path d="M0 0 C1.12 3.75 1.12 3.75 0 6 C-2.56 6.62 -2.56 6.62 -5 7 C-3.71 4.12 -2.34 2.13 0 0 Z " fill="#D7EFE6" transform="translate(180,192)"/>
<path d="M0 0 C2.47 0.5 2.47 0.5 5 1 C5 1.66 5 2.32 5 3 C6.32 3.33 7.64 3.66 9 4 C8.01 4.33 7.02 4.66 6 5 C1.33 2.67 1.33 2.67 0 0 Z " fill="#35996C" transform="translate(214,188)"/>
<path d="M0 0 C1.32 0.33 2.64 0.66 4 1 C4 1.99 4 2.98 4 4 C2.02 4.99 2.02 4.99 0 6 C0 4.02 0 2.04 0 0 Z " fill="#288F65" transform="translate(203,272)"/>
<path d="M0 0 C0.33 0.99 0.66 1.98 1 3 C0.67 3.66 0.34 4.32 0 5 C-0.66 5 -1.32 5 -2 5 C-2 4.34 -2 3.68 -2 3 C-3.98 3 -5.96 3 -8 3 C-8 2.67 -8 2.34 -8 2 C-5.36 1.34 -2.72 0.68 0 0 Z " fill="#A8D4BF" transform="translate(328,267)"/>
<path d="M0 0 C0.33 0.66 0.66 1.32 1 2 C0 5 0 5 -2.06 6.19 C-2.7 6.46 -3.34 6.72 -4 7 C-4 5.68 -4 4.36 -4 3 C-2 1.25 -2 1.25 0 0 Z " fill="#C7E5D9" transform="translate(271,262)"/>
<path d="M0 0 C2 3 2 3 1.62 6.19 C1.42 7.12 1.21 8.04 1 9 C-1 7 -1 7 -1.19 3.94 C-1 1 -1 1 0 0 Z " fill="#038C4B" transform="translate(297,248)"/>
<path d="M0 0 C0.99 0.33 1.98 0.66 3 1 C2.67 2.65 2.34 4.3 2 6 C1.01 5.67 0.02 5.34 -1 5 C-1.33 4.01 -1.66 3.02 -2 2 C-1.34 2 -0.68 2 0 2 C0 1.34 0 0.68 0 0 Z " fill="#D3EAE4" transform="translate(223,243)"/>
<path d="M0 0 C0.99 0.33 1.98 0.66 3 1 C3 2.65 3 4.3 3 6 C2.01 6 1.02 6 0 6 C0 4.02 0 2.04 0 0 Z " fill="#F5F7F9" transform="translate(363,244)"/>
<path d="M0 0 C2.31 0 4.62 0 7 0 C6.67 0.99 6.34 1.98 6 3 C3.03 2.5 3.03 2.5 0 2 C0 1.34 0 0.68 0 0 Z " fill="#E9F2EE" transform="translate(386,229)"/>
<path d="M0 0 C1.65 0 3.3 0 5 0 C5.33 1.65 5.66 3.3 6 5 C1.12 2.25 1.12 2.25 0 0 Z " fill="#399A71" transform="translate(206,212)"/>
<path d="M0 0 C-1.19 2 -1.19 2 -3 4 C-5.69 4.25 -5.69 4.25 -8 4 C-8 3.34 -8 2.68 -8 2 C-4.77 -0.15 -3.72 -0.2 0 0 Z " fill="#F5F5F6" transform="translate(204,210)"/>
<path d="M0 0 C0.99 0.33 1.98 0.66 3 1 C2.01 2.32 1.02 3.64 0 5 C-0.99 4.67 -1.98 4.34 -3 4 C-3 3.34 -3 2.68 -3 2 C-2.01 1.34 -1.02 0.68 0 0 Z " fill="#1D9060" transform="translate(176,192)"/>
<path d="M0 0 C0.33 0.66 0.66 1.32 1 2 C1.66 2.33 2.32 2.66 3 3 C0.03 4.98 0.03 4.98 -3 7 C-3.33 6.01 -3.66 5.02 -4 4 C-3.34 4 -2.68 4 -2 4 C-2 3.34 -2 2.68 -2 2 C-1.34 2 -0.68 2 0 2 C0 1.34 0 0.68 0 0 Z " fill="#209461" transform="translate(177,160)"/>
</svg>
